SplineFontDB: 3.2
FontName: FdSymbolC-Book
FullName: FdSymbolC-Book
FamilyName: FdSymbolC
Weight: Book
Copyright: Copyright (c) 2012, Michael Ummels. This Font Software is licensed under the SIL Open Font License, Version 1.1.
Version: 1.008
ItalicAngle: 0
UnderlinePosition: -100
UnderlineWidth: 50
Ascent: 800
Descent: 200
InvalidEm: 0
LayerCount: 2
Layer: 0 0 "Back" 1
Layer: 1 0 "Fore" 0
OS2Version: 0
OS2_WeightWidthSlopeOnly: 0
OS2_UseTypoMetrics: 0
CreationTime: 1739777132
ModificationTime: 1739777133
OS2TypoAscent: 0
OS2TypoAOffset: 1
OS2TypoDescent: 0
OS2TypoDOffset: 1
OS2TypoLinegap: 0
OS2WinAscent: 0
OS2WinAOffset: 1
OS2WinDescent: 0
OS2WinDOffset: 1
HheadAscent: 0
HheadAOffset: 1
HheadDescent: 0
HheadDOffset: 1
OS2Vendor: 'PfEd'
DEI: 91125
Encoding: Custom
UnicodeInterp: none
NameList: AGL For New Fonts
DisplaySize: -48
AntiAlias: 1
FitToEm: 0
BeginPrivate: 2
BlueValues 31 [-10 0 546 556 707 717 754 764]
OtherBlues 11 [-230 -220]
EndPrivate
BeginChars: 256 238

StartChar: arrowright
Encoding: 0 8594 0
Width: 930
Flags: HW
HStem: 268 64<90 731>
LayerCount: 2
Fore
SplineSet
853 300 m 1
 687 133 l 1
 641 179 l 1
 731 268 l 1
 90 268 l 1
 90 332 l 1
 731 332 l 1
 641 421 l 1
 687 467 l 1
 853 300 l 1
EndSplineSet
EndChar

StartChar: arrowup
Encoding: 1 8593 1
Width: 532
Flags: HW
VStem: 234 64<-75 566>
LayerCount: 2
Fore
SplineSet
266 688 m 1
 433 522 l 1
 387 476 l 1
 298 566 l 1
 298 -75 l 1
 234 -75 l 1
 234 566 l 1
 145 476 l 1
 99 522 l 1
 266 688 l 1
EndSplineSet
EndChar

StartChar: arrowleft
Encoding: 2 8592 2
Width: 930
Flags: HW
HStem: 268 64<199 840>
LayerCount: 2
Fore
SplineSet
77 300 m 1
 243 467 l 1
 289 421 l 1
 199 332 l 1
 840 332 l 1
 840 268 l 1
 199 268 l 1
 289 179 l 1
 243 133 l 1
 77 300 l 1
EndSplineSet
EndChar

StartChar: arrowdown
Encoding: 3 8595 3
Width: 532
Flags: HW
VStem: 234 64<34 675>
LayerCount: 2
Fore
SplineSet
266 -88 m 1
 99 78 l 1
 145 124 l 1
 234 34 l 1
 234 675 l 1
 298 675 l 1
 298 34 l 1
 387 124 l 1
 433 78 l 1
 266 -88 l 1
EndSplineSet
EndChar

StartChar: uni2197
Encoding: 4 8599 4
Width: 959
Flags: HW
HStem: 511 64<519 646>
VStem: 690 64<339 465>
LayerCount: 2
Fore
SplineSet
754 575 m 1
 754 339 l 1
 690 339 l 1
 690 465 l 1
 237 12 l 1
 192 57 l 1
 646 511 l 1
 519 511 l 1
 519 575 l 1
 754 575 l 1
EndSplineSet
EndChar

StartChar: uni2196
Encoding: 5 8598 5
Width: 959
Flags: HW
HStem: 511 64<314 441>
VStem: 205 64<339 465>
LayerCount: 2
Fore
SplineSet
205 575 m 1
 441 575 l 1
 441 511 l 1
 314 511 l 1
 767 57 l 1
 722 12 l 1
 269 465 l 1
 269 339 l 1
 205 339 l 1
 205 575 l 1
EndSplineSet
EndChar

StartChar: uni2199
Encoding: 6 8601 6
Width: 959
Flags: HW
HStem: 25 64<314 441>
VStem: 205 64<135 261>
LayerCount: 2
Fore
SplineSet
205 25 m 1
 205 261 l 1
 269 261 l 1
 269 135 l 1
 722 588 l 1
 767 543 l 1
 314 89 l 1
 441 89 l 1
 441 25 l 1
 205 25 l 1
EndSplineSet
EndChar

StartChar: uni2198
Encoding: 7 8600 7
Width: 959
Flags: HW
HStem: 25 64<519 646>
VStem: 690 64<135 261>
LayerCount: 2
Fore
SplineSet
754 25 m 1
 519 25 l 1
 519 89 l 1
 646 89 l 1
 192 543 l 1
 237 588 l 1
 690 135 l 1
 690 261 l 1
 754 261 l 1
 754 25 l 1
EndSplineSet
EndChar

StartChar: arrowdblright
Encoding: 8 8658 8
Width: 1080
Flags: HW
HStem: 178 64<90 791> 358 64<90 791>
LayerCount: 2
Fore
SplineSet
1003 300 m 1
 793 90 l 1
 748 135 l 1
 791 178 l 1
 90 178 l 1
 90 242 l 1
 855 242 l 1
 913 300 l 1
 855 358 l 1
 90 358 l 1
 90 422 l 1
 791 422 l 1
 748 465 l 1
 793 510 l 1
 1003 300 l 1
EndSplineSet
EndChar

StartChar: arrowdblup
Encoding: 9 8657 9
Width: 618
Flags: HW
HStem: 743 20G<289 329>
VStem: 187 64<-150 550> 367 64<-150 551>
LayerCount: 2
Fore
SplineSet
309 763 m 1
 519 553 l 1
 474 508 l 1
 431 551 l 1
 431 -150 l 1
 367 -150 l 1
 367 615 l 1
 309 673 l 1
 251 615 l 1
 251 -150 l 1
 187 -150 l 1
 187 550 l 1
 145 508 l 1
 99 553 l 1
 309 763 l 1
EndSplineSet
EndChar

StartChar: arrowdblleft
Encoding: 10 8656 10
Width: 1080
Flags: HW
HStem: 178 64<289 990> 358 64<289 990>
LayerCount: 2
Fore
SplineSet
77 300 m 1
 287 510 l 1
 332 465 l 1
 289 422 l 1
 990 422 l 1
 990 358 l 1
 225 358 l 1
 167 300 l 1
 225 242 l 1
 990 242 l 1
 990 178 l 1
 289 178 l 1
 332 135 l 1
 287 90 l 1
 77 300 l 1
EndSplineSet
EndChar

StartChar: arrowdbldown
Encoding: 11 8659 11
Width: 618
Flags: HW
VStem: 187 64<50 750> 367 64<49 750>
LayerCount: 2
Fore
SplineSet
309 -163 m 1
 99 47 l 1
 145 92 l 1
 187 50 l 1
 187 750 l 1
 251 750 l 1
 251 -15 l 1
 309 -73 l 1
 367 -15 l 1
 367 750 l 1
 431 750 l 1
 431 49 l 1
 474 92 l 1
 519 47 l 1
 309 -163 l 1
EndSplineSet
EndChar

StartChar: uni21D7
Encoding: 12 8663 12
Width: 1126
Flags: HW
HStem: 564 64<594 655 745 827>
VStem: 827 64<331 392 482 564>
LayerCount: 2
Fore
SplineSet
891 628 m 1
 891 331 l 1
 827 331 l 1
 827 392 l 1
 331 -104 l 1
 286 -59 l 1
 827 482 l 1
 827 564 l 1
 745 564 l 1
 204 23 l 1
 159 68 l 1
 655 564 l 1
 594 564 l 1
 594 628 l 1
 891 628 l 1
EndSplineSet
EndChar

StartChar: uni21D6
Encoding: 13 8662 13
Width: 1126
Flags: HW
HStem: 564 64<300 381 472 532>
VStem: 236 64<331 391 481 564>
LayerCount: 2
Fore
SplineSet
236 628 m 1
 532 628 l 1
 532 564 l 1
 472 564 l 1
 968 68 l 1
 922 23 l 1
 381 564 l 1
 300 564 l 1
 300 481 l 1
 840 -59 l 1
 795 -104 l 1
 300 391 l 1
 300 331 l 1
 236 331 l 1
 236 628 l 1
EndSplineSet
EndChar

StartChar: uni21D9
Encoding: 14 8665 14
Width: 1126
Flags: HW
HStem: -28 64<300 381 472 532>
VStem: 236 64<36 119 209 269>
LayerCount: 2
Fore
SplineSet
236 -28 m 1
 236 269 l 1
 300 269 l 1
 300 209 l 1
 795 704 l 1
 840 659 l 1
 300 119 l 1
 300 36 l 1
 381 36 l 1
 922 577 l 1
 968 532 l 1
 472 36 l 1
 532 36 l 1
 532 -28 l 1
 236 -28 l 1
EndSplineSet
EndChar

StartChar: uni21D8
Encoding: 15 8664 15
Width: 1126
Flags: HW
HStem: -28 64<594 655 745 827>
VStem: 827 64<36 118 208 269>
LayerCount: 2
Fore
SplineSet
891 -28 m 1
 594 -28 l 1
 594 36 l 1
 655 36 l 1
 159 532 l 1
 204 577 l 1
 745 36 l 1
 827 36 l 1
 827 118 l 1
 286 659 l 1
 331 704 l 1
 827 208 l 1
 827 269 l 1
 891 269 l 1
 891 -28 l 1
EndSplineSet
EndChar

StartChar: arrowboth
Encoding: 16 8596 16
Width: 1080
Flags: HW
HStem: 268 64<199 881>
LayerCount: 2
Fore
SplineSet
77 300 m 1
 243 467 l 1
 289 421 l 1
 199 332 l 1
 881 332 l 1
 791 421 l 1
 837 467 l 1
 1003 300 l 1
 837 133 l 1
 791 179 l 1
 881 268 l 1
 199 268 l 1
 289 179 l 1
 243 133 l 1
 77 300 l 1
EndSplineSet
EndChar

StartChar: arrowupdn
Encoding: 17 8597 17
Width: 532
Flags: HW
HStem: 551 21G<125 164.778 367.222 407> 743 20G<245.88 286.12>
VStem: 234 64<-41 641>
LayerCount: 2
Fore
SplineSet
266 -163 m 1
 99 3 l 1
 145 49 l 1
 234 -41 l 1
 234 641 l 1
 145 551 l 1
 99 597 l 1
 266 763 l 1
 433 597 l 1
 387 551 l 1
 298 641 l 1
 298 -41 l 1
 387 49 l 1
 433 3 l 1
 266 -163 l 1
EndSplineSet
EndChar

StartChar: uni2921
Encoding: 18 10529 18
Width: 1065
Flags: HW
HStem: -28 64<314 441> 564 64<625 752>
VStem: 205 64<82 208> 796 64<392 518>
LayerCount: 2
Fore
SplineSet
205 -28 m 1
 205 208 l 1
 269 208 l 1
 269 82 l 1
 752 564 l 1
 625 564 l 1
 625 628 l 1
 860 628 l 1
 860 392 l 1
 796 392 l 1
 796 518 l 1
 314 36 l 1
 441 36 l 1
 441 -28 l 1
 205 -28 l 1
EndSplineSet
EndChar

StartChar: uni2922
Encoding: 19 10530 19
Width: 1065
Flags: HW
HStem: -28 64<625 752> 564 64<314 441>
VStem: 205 64<392 518> 796 64<82 208>
LayerCount: 2
Fore
SplineSet
860 -28 m 1
 625 -28 l 1
 625 36 l 1
 752 36 l 1
 269 518 l 1
 269 392 l 1
 205 392 l 1
 205 628 l 1
 441 628 l 1
 441 564 l 1
 314 564 l 1
 796 82 l 1
 796 208 l 1
 860 208 l 1
 860 -28 l 1
EndSplineSet
EndChar

StartChar: arrowdblboth
Encoding: 20 8660 20
Width: 1230
Flags: HW
HStem: 178 64<289 941> 358 64<289 941>
LayerCount: 2
Fore
SplineSet
1005 358 m 1
 225 358 l 1
 167 300 l 1
 225 242 l 1
 1005 242 l 1
 1063 300 l 1
 1005 358 l 1
77 300 m 1
 287 510 l 1
 332 465 l 1
 289 422 l 1
 941 422 l 1
 898 465 l 1
 943 510 l 1
 1153 300 l 1
 943 90 l 1
 898 135 l 1
 941 178 l 1
 289 178 l 1
 332 135 l 1
 287 90 l 1
 77 300 l 1
EndSplineSet
EndChar

StartChar: uni21D5
Encoding: 21 8661 21
Width: 618
Flags: HW
VStem: 187 64<-25 625> 367 64<-26 626>
LayerCount: 2
Fore
SplineSet
251 690 m 1
 251 -90 l 1
 309 -148 l 1
 367 -90 l 1
 367 690 l 1
 309 748 l 1
 251 690 l 1
309 -238 m 1
 99 -28 l 1
 145 17 l 1
 187 -25 l 1
 187 625 l 1
 145 583 l 1
 99 628 l 1
 309 838 l 1
 519 628 l 1
 474 583 l 1
 431 626 l 1
 431 -26 l 1
 474 17 l 1
 519 -28 l 1
 309 -238 l 1
EndSplineSet
EndChar

StartChar: sym030
Encoding: 22 -1 22
Width: 1232
Flags: HW
HStem: -81 64<300 381 472 532> 617 64<700 761 851 933>
VStem: 236 64<-17 66 156 216> 933 64<384 445 535 617>
LayerCount: 2
Fore
SplineSet
851 617 m 1
 300 66 l 1
 300 -17 l 1
 381 -17 l 1
 933 535 l 1
 933 617 l 1
 851 617 l 1
236 -81 m 1
 236 216 l 1
 300 216 l 1
 300 156 l 1
 761 617 l 1
 700 617 l 1
 700 681 l 1
 997 681 l 1
 997 384 l 1
 933 384 l 1
 933 445 l 1
 472 -17 l 1
 532 -17 l 1
 532 -81 l 1
 236 -81 l 1
EndSplineSet
EndChar

StartChar: sym031
Encoding: 23 -1 23
Width: 1232
Flags: HW
HStem: -81 64<700 761 851 933> 617 64<300 381 472 532>
VStem: 236 64<384 444 534 617> 933 64<-17 65 155 216>
LayerCount: 2
Fore
SplineSet
300 534 m 1
 851 -17 l 1
 933 -17 l 1
 933 65 l 1
 381 617 l 1
 300 617 l 1
 300 534 l 1
997 -81 m 1
 700 -81 l 1
 700 -17 l 1
 761 -17 l 1
 300 444 l 1
 300 384 l 1
 236 384 l 1
 236 681 l 1
 532 681 l 1
 532 617 l 1
 472 617 l 1
 933 155 l 1
 933 216 l 1
 997 216 l 1
 997 -81 l 1
EndSplineSet
EndChar

StartChar: uni21A0
Encoding: 24 8608 24
Width: 1118
Flags: HW
HStem: 268 64<90 684 774 918>
LayerCount: 2
Fore
SplineSet
1041 300 m 1
 874 133 l 1
 829 179 l 1
 918 268 l 1
 774 268 l 1
 640 133 l 1
 595 179 l 1
 684 268 l 1
 90 268 l 1
 90 332 l 1
 684 332 l 1
 595 421 l 1
 640 467 l 1
 774 332 l 1
 918 332 l 1
 829 421 l 1
 874 467 l 1
 1041 300 l 1
EndSplineSet
EndChar

StartChar: uni219F
Encoding: 25 8607 25
Width: 532
Flags: HW
VStem: 234 64<-169 425 516 660>
LayerCount: 2
Fore
SplineSet
266 782 m 1
 433 615 l 1
 387 570 l 1
 298 660 l 1
 298 516 l 1
 433 381 l 1
 387 336 l 1
 298 425 l 1
 298 -169 l 1
 234 -169 l 1
 234 425 l 1
 145 336 l 1
 99 381 l 1
 234 516 l 1
 234 660 l 1
 145 570 l 1
 99 615 l 1
 266 782 l 1
EndSplineSet
EndChar

StartChar: uni219E
Encoding: 26 8606 26
Width: 1118
Flags: HW
HStem: 268 64<199 343 434 1028>
LayerCount: 2
Fore
SplineSet
77 300 m 1
 243 467 l 1
 289 421 l 1
 199 332 l 1
 343 332 l 1
 478 467 l 1
 523 421 l 1
 434 332 l 1
 1028 332 l 1
 1028 268 l 1
 434 268 l 1
 523 179 l 1
 478 133 l 1
 343 268 l 1
 199 268 l 1
 289 179 l 1
 243 133 l 1
 77 300 l 1
EndSplineSet
EndChar

StartChar: uni21A1
Encoding: 27 8609 27
Width: 532
Flags: HW
VStem: 234 64<-60 84 175 769>
LayerCount: 2
Fore
SplineSet
266 -182 m 1
 99 -15 l 1
 145 30 l 1
 234 -60 l 1
 234 84 l 1
 99 219 l 1
 145 264 l 1
 234 175 l 1
 234 769 l 1
 298 769 l 1
 298 175 l 1
 387 264 l 1
 433 219 l 1
 298 84 l 1
 298 -60 l 1
 387 30 l 1
 433 -15 l 1
 266 -182 l 1
EndSplineSet
EndChar

StartChar: sym033
Encoding: 28 -1 28
Width: 1092
Flags: HW
HStem: 411 64<485 612> 577 64<651 778>
VStem: 657 64<239 366> 823 64<405 532>
LayerCount: 2
Fore
SplineSet
887 641 m 1
 887 405 l 1
 823 405 l 1
 823 532 l 1
 721 430 l 1
 721 239 l 1
 657 239 l 1
 657 366 l 1
 237 -54 l 1
 192 -9 l 1
 612 411 l 1
 485 411 l 1
 485 475 l 1
 676 475 l 1
 778 577 l 1
 651 577 l 1
 651 641 l 1
 887 641 l 1
EndSplineSet
EndChar

StartChar: sym032
Encoding: 29 -1 29
Width: 1092
Flags: HW
HStem: 411 64<480 606> 577 64<314 441>
VStem: 205 64<405 531> 371 64<239 365>
LayerCount: 2
Fore
SplineSet
205 641 m 1
 441 641 l 1
 441 577 l 1
 314 577 l 1
 416 475 l 1
 606 475 l 1
 606 411 l 1
 480 411 l 1
 900 -9 l 1
 855 -54 l 1
 435 365 l 1
 435 239 l 1
 371 239 l 1
 371 429 l 1
 269 531 l 1
 269 405 l 1
 205 405 l 1
 205 641 l 1
EndSplineSet
EndChar

StartChar: sym035
Encoding: 30 -1 30
Width: 1092
Flags: HW
HStem: -41 64<314 441> 125 64<480 606>
VStem: 205 64<69 195> 371 64<235 361>
LayerCount: 2
Fore
SplineSet
205 -41 m 1
 205 195 l 1
 269 195 l 1
 269 69 l 1
 371 171 l 1
 371 361 l 1
 435 361 l 1
 435 235 l 1
 855 654 l 1
 900 609 l 1
 480 189 l 1
 606 189 l 1
 606 125 l 1
 416 125 l 1
 314 23 l 1
 441 23 l 1
 441 -41 l 1
 205 -41 l 1
EndSplineSet
EndChar

StartChar: sym034
Encoding: 31 -1 31
Width: 1092
Flags: HW
HStem: -41 64<651 778> 125 64<485 612>
VStem: 657 64<234 361> 823 64<68 195>
LayerCount: 2
Fore
SplineSet
887 -41 m 1
 651 -41 l 1
 651 23 l 1
 778 23 l 1
 676 125 l 1
 485 125 l 1
 485 189 l 1
 612 189 l 1
 192 609 l 1
 237 654 l 1
 657 234 l 1
 657 361 l 1
 721 361 l 1
 721 170 l 1
 823 68 l 1
 823 195 l 1
 887 195 l 1
 887 -41 l 1
EndSplineSet
EndChar

StartChar: uni21A3
Encoding: 32 8611 32
Width: 930
Flags: HW
HStem: 268 64<279 731>
LayerCount: 2
Fore
SplineSet
853 300 m 1
 687 133 l 1
 641 179 l 1
 731 268 l 1
 279 268 l 1
 145 133 l 1
 99 179 l 1
 221 300 l 1
 99 421 l 1
 145 467 l 1
 279 332 l 1
 731 332 l 1
 641 421 l 1
 687 467 l 1
 853 300 l 1
EndSplineSet
EndChar

StartChar: sym036
Encoding: 33 -1 33
Width: 532
Flags: HW
VStem: 234 64<114 566>
LayerCount: 2
Fore
SplineSet
266 688 m 1
 433 522 l 1
 387 476 l 1
 298 566 l 1
 298 114 l 1
 433 -20 l 1
 387 -66 l 1
 266 56 l 1
 145 -66 l 1
 99 -20 l 1
 234 114 l 1
 234 566 l 1
 145 476 l 1
 99 522 l 1
 266 688 l 1
EndSplineSet
EndChar

StartChar: uni21A2
Encoding: 34 8610 34
Width: 930
Flags: HW
HStem: 268 64<199 651>
LayerCount: 2
Fore
SplineSet
77 300 m 1
 243 467 l 1
 289 421 l 1
 199 332 l 1
 651 332 l 1
 785 467 l 1
 831 421 l 1
 709 300 l 1
 831 179 l 1
 785 133 l 1
 651 268 l 1
 199 268 l 1
 289 179 l 1
 243 133 l 1
 77 300 l 1
EndSplineSet
EndChar

StartChar: sym037
Encoding: 35 -1 35
Width: 532
Flags: HW
VStem: 234 64<34 486>
LayerCount: 2
Fore
SplineSet
266 -88 m 1
 99 78 l 1
 145 124 l 1
 234 34 l 1
 234 486 l 1
 99 620 l 1
 145 666 l 1
 266 544 l 1
 387 666 l 1
 433 620 l 1
 298 486 l 1
 298 34 l 1
 387 124 l 1
 433 78 l 1
 266 -88 l 1
EndSplineSet
EndChar

StartChar: sym039
Encoding: 36 -1 36
Width: 959
Flags: HW
HStem: 127 64<135 307> 511 64<519 646>
VStem: 307 64<-44 127> 690 64<339 465>
LayerCount: 2
Fore
SplineSet
754 575 m 1
 754 339 l 1
 690 339 l 1
 690 465 l 1
 371 146 l 1
 371 -44 l 1
 307 -44 l 1
 307 127 l 1
 135 127 l 1
 135 191 l 1
 325 191 l 1
 646 511 l 1
 519 511 l 1
 519 575 l 1
 754 575 l 1
EndSplineSet
EndChar

StartChar: sym038
Encoding: 37 -1 37
Width: 959
Flags: HW
HStem: 127 64<652 824> 511 64<314 441>
VStem: 205 64<339 465> 588 64<-44 127>
LayerCount: 2
Fore
SplineSet
205 575 m 1
 441 575 l 1
 441 511 l 1
 314 511 l 1
 634 191 l 1
 824 191 l 1
 824 127 l 1
 652 127 l 1
 652 -44 l 1
 588 -44 l 1
 588 147 l 1
 269 465 l 1
 269 339 l 1
 205 339 l 1
 205 575 l 1
EndSplineSet
EndChar

StartChar: sym03B
Encoding: 38 -1 38
Width: 959
Flags: HW
HStem: 25 64<314 441> 409 64<652 824>
VStem: 205 64<135 261> 588 64<473 644>
LayerCount: 2
Fore
SplineSet
205 25 m 1
 205 261 l 1
 269 261 l 1
 269 135 l 1
 588 453 l 1
 588 644 l 1
 652 644 l 1
 652 473 l 1
 824 473 l 1
 824 409 l 1
 634 409 l 1
 314 89 l 1
 441 89 l 1
 441 25 l 1
 205 25 l 1
EndSplineSet
EndChar

StartChar: sym03A
Encoding: 39 -1 39
Width: 959
Flags: HW
HStem: 25 64<519 646> 409 64<135 307>
VStem: 307 64<473 644> 690 64<135 261>
LayerCount: 2
Fore
SplineSet
754 25 m 1
 519 25 l 1
 519 89 l 1
 646 89 l 1
 325 409 l 1
 135 409 l 1
 135 473 l 1
 307 473 l 1
 307 644 l 1
 371 644 l 1
 371 454 l 1
 690 135 l 1
 690 261 l 1
 754 261 l 1
 754 25 l 1
EndSplineSet
EndChar

StartChar: uni21A6
Encoding: 40 8614 40
Width: 930
Flags: HW
HStem: 268 64<154 731>
VStem: 90 64<124 268 332 476>
LayerCount: 2
Fore
SplineSet
853 300 m 1
 687 133 l 1
 641 179 l 1
 731 268 l 1
 154 268 l 1
 154 124 l 1
 90 124 l 1
 90 476 l 1
 154 476 l 1
 154 332 l 1
 731 332 l 1
 641 421 l 1
 687 467 l 1
 853 300 l 1
EndSplineSet
EndChar

StartChar: uni21A5
Encoding: 41 8613 41
Width: 532
Flags: HW
HStem: -75 64<90 234 298 442>
VStem: 234 64<-11 566>
LayerCount: 2
Fore
SplineSet
266 688 m 1
 433 522 l 1
 387 476 l 1
 298 566 l 1
 298 -11 l 1
 442 -11 l 1
 442 -75 l 1
 90 -75 l 1
 90 -11 l 1
 234 -11 l 1
 234 566 l 1
 145 476 l 1
 99 522 l 1
 266 688 l 1
EndSplineSet
EndChar

StartChar: uni21A4
Encoding: 42 8612 42
Width: 930
Flags: HW
HStem: 268 64<199 776>
VStem: 776 64<124 268 332 476>
LayerCount: 2
Fore
SplineSet
77 300 m 1
 243 467 l 1
 289 421 l 1
 199 332 l 1
 776 332 l 1
 776 476 l 1
 840 476 l 1
 840 124 l 1
 776 124 l 1
 776 268 l 1
 199 268 l 1
 289 179 l 1
 243 133 l 1
 77 300 l 1
EndSplineSet
EndChar

StartChar: uni21A7
Encoding: 43 8615 43
Width: 532
Flags: HW
HStem: 611 64<90 234 298 442>
VStem: 234 64<34 611>
LayerCount: 2
Fore
SplineSet
266 -88 m 1
 99 78 l 1
 145 124 l 1
 234 34 l 1
 234 611 l 1
 90 611 l 1
 90 675 l 1
 442 675 l 1
 442 611 l 1
 298 611 l 1
 298 34 l 1
 387 124 l 1
 433 78 l 1
 266 -88 l 1
EndSplineSet
EndChar

StartChar: uni2907
Encoding: 44 10503 44
Width: 1080
Flags: HW
HStem: 178 64<154 791> 358 64<154 791>
VStem: 90 64<81 178 242 358 422 519>
LayerCount: 2
Fore
SplineSet
154 358 m 1
 154 242 l 1
 855 242 l 1
 913 300 l 1
 855 358 l 1
 154 358 l 1
1003 300 m 1
 793 90 l 1
 748 135 l 1
 791 178 l 1
 154 178 l 1
 154 81 l 1
 90 81 l 1
 90 519 l 1
 154 519 l 1
 154 422 l 1
 791 422 l 1
 748 465 l 1
 793 510 l 1
 1003 300 l 1
EndSplineSet
EndChar

StartChar: sym03C
Encoding: 45 -1 45
Width: 618
Flags: HW
HStem: -150 64<90 187 251 367 431 528> 743 20G<289 329>
VStem: 187 64<-86 550> 367 64<-86 551>
LayerCount: 2
Fore
SplineSet
251 -86 m 1
 367 -86 l 1
 367 615 l 1
 309 673 l 1
 251 615 l 1
 251 -86 l 1
309 763 m 1
 519 553 l 1
 474 508 l 1
 431 551 l 1
 431 -86 l 1
 528 -86 l 1
 528 -150 l 1
 90 -150 l 1
 90 -86 l 1
 187 -86 l 1
 187 550 l 1
 145 508 l 1
 99 553 l 1
 309 763 l 1
EndSplineSet
EndChar

StartChar: uni2906
Encoding: 46 10502 46
Width: 1080
Flags: HW
HStem: 178 64<289 926> 358 64<289 926>
VStem: 926 64<81 178 242 358 422 519>
LayerCount: 2
Fore
SplineSet
926 242 m 1
 926 358 l 1
 225 358 l 1
 167 300 l 1
 225 242 l 1
 926 242 l 1
77 300 m 1
 287 510 l 1
 332 465 l 1
 289 422 l 1
 926 422 l 1
 926 519 l 1
 990 519 l 1
 990 81 l 1
 926 81 l 1
 926 178 l 1
 289 178 l 1
 332 135 l 1
 287 90 l 1
 77 300 l 1
EndSplineSet
EndChar

StartChar: sym03D
Encoding: 47 -1 47
Width: 618
Flags: HW
HStem: 686 64<90 187 251 367 431 528>
VStem: 187 64<50 686> 367 64<49 686>
LayerCount: 2
Fore
SplineSet
367 686 m 1
 251 686 l 1
 251 -15 l 1
 309 -73 l 1
 367 -15 l 1
 367 686 l 1
309 -163 m 1
 99 47 l 1
 145 92 l 1
 187 50 l 1
 187 686 l 1
 90 686 l 1
 90 750 l 1
 528 750 l 1
 528 686 l 1
 431 686 l 1
 431 49 l 1
 474 92 l 1
 519 47 l 1
 309 -163 l 1
EndSplineSet
EndChar

StartChar: uni21AA
Encoding: 48 8618 48
Width: 930
Flags: HW
HStem: 268 64<158.417 731> 412 64<158.417 226>
VStem: 90 64<336.405 407.595>
LayerCount: 2
Fore
SplineSet
226 412 m 1
 194 412 l 2
 172 412 154 394 154 372 c 0
 154 350 172 332 194 332 c 2
 731 332 l 1
 641 421 l 1
 687 467 l 1
 853 300 l 1
 687 133 l 1
 641 179 l 1
 731 268 l 1
 194 268 l 2
 137 268 90 315 90 372 c 0
 90 429 137 476 194 476 c 2
 226 476 l 1
 226 412 l 1
EndSplineSet
EndChar

StartChar: sym03E
Encoding: 49 -1 49
Width: 532
Flags: HW
HStem: -75 64<158.405 229.595>
VStem: 90 64<-6.5834 61> 234 64<-6.5834 566>
LayerCount: 2
Fore
SplineSet
154 61 m 1
 154 29 l 2
 154 7 172 -11 194 -11 c 0
 216 -11 234 7 234 29 c 2
 234 566 l 1
 145 476 l 1
 99 522 l 1
 266 688 l 1
 433 522 l 1
 387 476 l 1
 298 566 l 1
 298 29 l 2
 298 -28 251 -75 194 -75 c 0
 137 -75 90 -28 90 29 c 2
 90 61 l 1
 154 61 l 1
EndSplineSet
EndChar

StartChar: uni21A9.alt
Encoding: 50 -1 50
Width: 930
Flags: HW
HStem: 124 64<704 771.583> 268 64<199 771.583>
VStem: 776 64<192.405 263.595>
LayerCount: 2
Fore
SplineSet
704 188 m 1
 736 188 l 2
 758 188 776 206 776 228 c 0
 776 250 758 268 736 268 c 2
 199 268 l 1
 289 179 l 1
 243 133 l 1
 77 300 l 1
 243 467 l 1
 289 421 l 1
 199 332 l 1
 736 332 l 2
 793 332 840 285 840 228 c 0
 840 171 793 124 736 124 c 2
 704 124 l 1
 704 188 l 1
EndSplineSet
EndChar

StartChar: sym03F.alt
Encoding: 51 -1 51
Width: 532
Flags: HW
HStem: 611 64<302.405 373.595>
VStem: 234 64<34 606.583> 378 64<539 606.583>
LayerCount: 2
Fore
SplineSet
378 539 m 1
 378 571 l 2
 378 593 360 611 338 611 c 0
 316 611 298 593 298 571 c 2
 298 34 l 1
 387 124 l 1
 433 78 l 1
 266 -88 l 1
 99 78 l 1
 145 124 l 1
 234 34 l 1
 234 571 l 2
 234 628 281 675 338 675 c 0
 395 675 442 628 442 571 c 2
 442 539 l 1
 378 539 l 1
EndSplineSet
EndChar

StartChar: uni2924.alt
Encoding: 52 -1 52
Width: 959
Flags: HW
HStem: 55 64<202.958 272.6> 511 64<519 646>
VStem: 133 64<124.802 197.704> 690 64<339 465>
LayerCount: 2
Fore
SplineSet
237 55 m 0
 180 55 133 102 133 159 c 0
 133 186 144 213 164 233 c 2
 186 255 l 1
 231 210 l 1
 209 188 l 2
 201 180 197 170 197 160 c 0
 197 139 214 119 237 119 c 0
 247 119 257 123 265 131 c 2
 646 511 l 1
 519 511 l 1
 519 575 l 1
 754 575 l 1
 754 339 l 1
 690 339 l 1
 690 465 l 1
 311 86 l 2
 291 66 264 55 237 55 c 0
EndSplineSet
EndChar

StartChar: uni2923
Encoding: 53 10531 53
Width: 959
Flags: HW
HStem: -47 65<581.628 655.688> 511 64<314 441>
VStem: 205 64<339 465> 660 64<23.2633 94.3359>
LayerCount: 2
Fore
SplineSet
724 58 m 0
 724 0 677 -47 620 -47 c 0
 593 -47 567 -36 547 -16 c 2
 524 7 l 1
 569 52 l 1
 592 29 l 2
 600 21 610 18 620 18 c 0
 643 18 660 35 660 58 c 0
 660 68 657 78 649 86 c 2
 269 465 l 1
 269 339 l 1
 205 339 l 1
 205 575 l 1
 441 575 l 1
 441 511 l 1
 314 511 l 1
 694 131 l 2
 714 111 724 84 724 58 c 0
EndSplineSet
EndChar

StartChar: uni2926.alt
Encoding: 54 -1 54
Width: 959
Flags: HW
HStem: 25 64<314 441> 481 64<686.05 757.04>
VStem: 205 64<135 261> 762 64<402.296 475.585>
LayerCount: 2
Fore
SplineSet
722 545 m 0
 778 545 826 500 826 441 c 0
 826 414 816 387 796 367 c 2
 773 345 l 1
 728 390 l 1
 750 412 l 2
 758 420 762 430 762 440 c 0
 762 461 745 481 722 481 c 0
 712 481 702 477 694 469 c 2
 314 89 l 1
 441 89 l 1
 441 25 l 1
 205 25 l 1
 205 261 l 1
 269 261 l 1
 269 135 l 1
 649 514 l 2
 669 534 695 545 722 545 c 0
EndSplineSet
EndChar

StartChar: uni2925
Encoding: 55 10533 55
Width: 959
Flags: HW
HStem: 25 64<519 646> 548 21G<370 410> 582 65<303.43 377.372>
VStem: 235 64<506.251 576.775> 690 64<135 261>
LayerCount: 2
Fore
SplineSet
235 542 m 0
 235 600 282 647 339 647 c 0
 366 647 392 636 412 616 c 2
 435 593 l 1
 390 548 l 1
 367 571 l 2
 359 579 349 582 339 582 c 0
 315 582 299 563 299 542 c 0
 299 532 303 522 311 514 c 2
 690 135 l 1
 690 261 l 1
 754 261 l 1
 754 25 l 1
 519 25 l 1
 519 89 l 1
 646 89 l 1
 265 469 l 2
 245 489 235 516 235 542 c 0
EndSplineSet
EndChar

StartChar: uni21AA.alt
Encoding: 56 -1 56
Width: 930
Flags: HW
HStem: 124 64<158.417 226> 268 64<158.417 731>
VStem: 90 64<192.405 263.595>
LayerCount: 2
Fore
SplineSet
226 124 m 1
 194 124 l 2
 137 124 90 171 90 228 c 0
 90 285 137 332 194 332 c 2
 731 332 l 1
 641 421 l 1
 687 467 l 1
 853 300 l 1
 687 133 l 1
 641 179 l 1
 731 268 l 1
 194 268 l 2
 172 268 154 250 154 228 c 0
 154 206 172 188 194 188 c 2
 226 188 l 1
 226 124 l 1
EndSplineSet
EndChar

StartChar: sym03E.alt
Encoding: 57 -1 57
Width: 532
Flags: HW
HStem: -75 64<302.405 373.595>
VStem: 234 64<-6.5834 566> 378 64<-6.5834 61>
LayerCount: 2
Fore
SplineSet
442 61 m 1
 442 29 l 2
 442 -28 395 -75 338 -75 c 0
 281 -75 234 -28 234 29 c 2
 234 566 l 1
 145 476 l 1
 99 522 l 1
 266 688 l 1
 433 522 l 1
 387 476 l 1
 298 566 l 1
 298 29 l 2
 298 7 316 -11 338 -11 c 0
 360 -11 378 7 378 29 c 2
 378 61 l 1
 442 61 l 1
EndSplineSet
EndChar

StartChar: uni21A9
Encoding: 58 8617 58
Width: 930
Flags: HW
HStem: 268 64<199 771.583> 412 64<704 771.583>
VStem: 776 64<336.405 407.595>
LayerCount: 2
Fore
SplineSet
704 476 m 1
 736 476 l 2
 793 476 840 429 840 372 c 0
 840 315 793 268 736 268 c 2
 199 268 l 1
 289 179 l 1
 243 133 l 1
 77 300 l 1
 243 467 l 1
 289 421 l 1
 199 332 l 1
 736 332 l 2
 758 332 776 350 776 372 c 0
 776 394 758 412 736 412 c 2
 704 412 l 1
 704 476 l 1
EndSplineSet
EndChar

StartChar: sym03F
Encoding: 59 -1 59
Width: 532
Flags: HW
HStem: 611 64<158.405 229.595>
VStem: 90 64<539 606.583> 234 64<34 606.583>
LayerCount: 2
Fore
SplineSet
90 539 m 1
 90 571 l 2
 90 628 137 675 194 675 c 0
 251 675 298 628 298 571 c 2
 298 34 l 1
 387 124 l 1
 433 78 l 1
 266 -88 l 1
 99 78 l 1
 145 124 l 1
 234 34 l 1
 234 571 l 2
 234 593 216 611 194 611 c 0
 172 611 154 593 154 571 c 2
 154 539 l 1
 90 539 l 1
EndSplineSet
EndChar

StartChar: uni2924
Encoding: 60 10532 60
Width: 959
Flags: HW
HStem: -47 65<303.43 377.372> 511 64<519 646>
VStem: 235 64<23.2251 93.7489> 690 64<339 465>
LayerCount: 2
Fore
SplineSet
299 58 m 0
 299 37 315 18 339 18 c 0
 349 18 359 21 367 29 c 2
 390 52 l 1
 435 7 l 1
 412 -16 l 2
 392 -36 366 -47 339 -47 c 0
 282 -47 235 0 235 58 c 0
 235 84 245 111 265 131 c 2
 646 511 l 1
 519 511 l 1
 519 575 l 1
 754 575 l 1
 754 339 l 1
 690 339 l 1
 690 465 l 1
 311 86 l 2
 303 78 299 68 299 58 c 0
EndSplineSet
EndChar

StartChar: uni2923.alt
Encoding: 61 -1 61
Width: 959
Flags: HW
HStem: 55 64<686.05 757.04> 511 64<314 441>
VStem: 205 64<339 465> 762 64<124.415 197.704>
LayerCount: 2
Fore
SplineSet
722 119 m 0
 745 119 762 139 762 160 c 0
 762 170 758 180 750 188 c 2
 728 210 l 1
 773 255 l 1
 796 233 l 2
 816 213 826 186 826 159 c 0
 826 100 778 55 722 55 c 0
 695 55 669 66 649 86 c 2
 269 465 l 1
 269 339 l 1
 205 339 l 1
 205 575 l 1
 441 575 l 1
 441 511 l 1
 314 511 l 1
 694 131 l 2
 702 123 712 119 722 119 c 0
EndSplineSet
EndChar

StartChar: uni2926
Encoding: 62 10534 62
Width: 959
Flags: HW
HStem: 25 64<314 441> 548 21G<549 589> 582 65<581.628 655.688>
VStem: 205 64<135 261> 660 64<505.664 576.737>
LayerCount: 2
Fore
SplineSet
660 542 m 0
 660 565 643 582 620 582 c 0
 610 582 600 579 592 571 c 2
 569 548 l 1
 524 593 l 1
 547 616 l 2
 567 636 593 647 620 647 c 0
 677 647 724 600 724 542 c 0
 724 516 714 489 694 469 c 2
 314 89 l 1
 441 89 l 1
 441 25 l 1
 205 25 l 1
 205 261 l 1
 269 261 l 1
 269 135 l 1
 649 514 l 2
 657 522 660 532 660 542 c 0
EndSplineSet
EndChar

StartChar: uni2925.alt
Encoding: 63 -1 63
Width: 959
Flags: HW
HStem: 25 64<519 646> 481 64<202.958 272.6>
VStem: 133 64<402.296 475.198> 690 64<135 261>
LayerCount: 2
Fore
SplineSet
237 481 m 0
 214 481 197 461 197 440 c 0
 197 430 201 420 209 412 c 2
 231 390 l 1
 186 345 l 1
 164 367 l 2
 144 387 133 414 133 441 c 0
 133 498 180 545 237 545 c 0
 264 545 291 534 311 514 c 2
 690 135 l 1
 690 261 l 1
 754 261 l 1
 754 25 l 1
 519 25 l 1
 519 89 l 1
 646 89 l 1
 265 469 l 2
 257 477 247 481 237 481 c 0
EndSplineSet
EndChar

StartChar: uni21C0
Encoding: 64 8640 64
Width: 930
Flags: HW
HStem: 268 64<90 731>
LayerCount: 2
Fore
SplineSet
853 300 m 1
 845 268 l 1
 90 268 l 1
 90 332 l 1
 731 332 l 1
 625 437 l 1
 671 483 l 1
 853 300 l 1
EndSplineSet
EndChar

StartChar: uni21BF
Encoding: 65 8639 65
Width: 532
Flags: HW
VStem: 234 64<-75 566>
LayerCount: 2
Fore
SplineSet
266 688 m 1
 298 680 l 1
 298 -75 l 1
 234 -75 l 1
 234 566 l 1
 129 460 l 1
 83 506 l 1
 266 688 l 1
EndSplineSet
EndChar

StartChar: uni21BD
Encoding: 66 8637 66
Width: 930
Flags: HW
HStem: 268 64<199 840>
LayerCount: 2
Fore
SplineSet
77 300 m 1
 85 332 l 1
 840 332 l 1
 840 268 l 1
 199 268 l 1
 305 163 l 1
 259 117 l 1
 77 300 l 1
EndSplineSet
EndChar

StartChar: uni21C2
Encoding: 67 8642 67
Width: 532
Flags: HW
VStem: 234 64<34 675>
LayerCount: 2
Fore
SplineSet
266 -88 m 1
 234 -80 l 1
 234 675 l 1
 298 675 l 1
 298 34 l 1
 403 140 l 1
 449 94 l 1
 266 -88 l 1
EndSplineSet
EndChar

StartChar: sym041
Encoding: 68 -1 68
Width: 959
Flags: HW
HStem: 511 64<496 646>
LayerCount: 2
Fore
SplineSet
754 575 m 1
 771 546 l 1
 745 520 l 1
 237 12 l 1
 192 57 l 1
 646 511 l 1
 496 511 l 1
 496 575 l 1
 754 575 l 1
EndSplineSet
EndChar

StartChar: sym040
Encoding: 69 -1 69
Width: 959
Flags: HW
VStem: 205 64<316 465>
LayerCount: 2
Fore
SplineSet
205 575 m 1
 234 591 l 1
 260 565 l 1
 269 556 l 2
 767 57 l 1
 722 12 l 1
 269 465 l 1
 269 316 l 1
 205 316 l 1
 205 575 l 1
EndSplineSet
EndChar

StartChar: sym043
Encoding: 70 -1 70
Width: 959
Flags: HW
HStem: 25 64<314 463>
LayerCount: 2
Fore
SplineSet
205 25 m 1
 189 54 l 1
 215 80 l 1
 214 80 l 1
 722 588 l 1
 767 543 l 1
 314 89 l 1
 463 89 l 1
 463 25 l 1
 205 25 l 1
EndSplineSet
EndChar

StartChar: sym042
Encoding: 71 -1 71
Width: 959
Flags: HW
VStem: 690 64<44 45 135 284>
LayerCount: 2
Fore
SplineSet
754 25 m 1
 725 9 l 1
 690 44 l 1
 690 45 l 1
 192 543 l 1
 237 588 l 1
 690 135 l 1
 690 284 l 1
 754 284 l 1
 754 25 l 1
EndSplineSet
EndChar

StartChar: uni21C1
Encoding: 72 8641 72
Width: 930
Flags: HW
HStem: 268 64<90 731>
LayerCount: 2
Fore
SplineSet
853 300 m 1
 671 117 l 1
 625 163 l 1
 731 268 l 1
 90 268 l 1
 90 332 l 1
 845 332 l 1
 853 300 l 1
EndSplineSet
EndChar

StartChar: uni21BE
Encoding: 73 8638 73
Width: 532
Flags: HW
VStem: 234 64<-75 566>
LayerCount: 2
Fore
SplineSet
266 688 m 1
 449 506 l 1
 403 460 l 1
 298 566 l 1
 298 -75 l 1
 234 -75 l 1
 234 680 l 1
 266 688 l 1
EndSplineSet
EndChar

StartChar: uni21BC
Encoding: 74 8636 74
Width: 930
Flags: HW
HStem: 268 64<199 840>
LayerCount: 2
Fore
SplineSet
77 300 m 1
 259 483 l 1
 305 437 l 1
 199 332 l 1
 840 332 l 1
 840 268 l 1
 85 268 l 1
 77 300 l 1
EndSplineSet
EndChar

StartChar: uni21C3
Encoding: 75 8643 75
Width: 532
Flags: HW
VStem: 234 64<34 675>
LayerCount: 2
Fore
SplineSet
266 -88 m 1
 83 94 l 1
 129 140 l 1
 234 34 l 1
 234 675 l 1
 298 675 l 1
 298 -80 l 1
 266 -88 l 1
EndSplineSet
EndChar

StartChar: sym045
Encoding: 76 -1 76
Width: 959
Flags: HW
VStem: 690 64<316 465 555 556>
LayerCount: 2
Fore
SplineSet
754 575 m 1
 754 316 l 1
 690 316 l 1
 690 465 l 1
 237 12 l 1
 192 57 l 1
 690 555 l 1
 690 556 l 1
 725 591 l 1
 754 575 l 1
EndSplineSet
EndChar

StartChar: sym044
Encoding: 77 -1 77
Width: 959
Flags: HW
HStem: 511 64<314 463>
LayerCount: 2
Fore
SplineSet
205 575 m 1
 463 575 l 1
 463 511 l 1
 314 511 l 1
 767 57 l 1
 722 12 l 1
 214 520 l 1
 215 520 l 1
 189 546 l 1
 205 575 l 1
EndSplineSet
EndChar

StartChar: sym047
Encoding: 78 -1 78
Width: 959
Flags: HW
VStem: 205 64<135 284>
LayerCount: 2
Fore
SplineSet
205 25 m 1
 205 284 l 1
 269 284 l 1
 269 135 l 1
 722 588 l 1
 767 543 l 1
 598 374 429 204 260 35 c 2
 234 9 l 1
 205 25 l 1
EndSplineSet
EndChar

StartChar: sym046
Encoding: 79 -1 79
Width: 959
Flags: HW
HStem: 25 64<496 646>
LayerCount: 2
Fore
SplineSet
754 25 m 1
 496 25 l 1
 496 89 l 1
 646 89 l 1
 192 543 l 1
 237 588 l 1
 745 80 l 1
 771 54 l 1
 754 25 l 1
EndSplineSet
EndChar

StartChar: uni294B
Encoding: 80 10571 80
Width: 930
Flags: HW
HStem: 268 64<199 731>
LayerCount: 2
Fore
SplineSet
77 300 m 1
 85 332 l 1
 731 332 l 1
 625 437 l 1
 671 483 l 1
 853 300 l 1
 845 268 l 1
 199 268 l 1
 305 163 l 1
 259 117 l 1
 77 300 l 1
EndSplineSet
EndChar

StartChar: uni294D
Encoding: 81 10573 81
Width: 532
Flags: HW
VStem: 234 64<34 566>
LayerCount: 2
Fore
SplineSet
266 -88 m 1
 234 -80 l 1
 234 566 l 1
 129 460 l 1
 83 506 l 1
 266 688 l 1
 298 680 l 1
 298 34 l 1
 403 140 l 1
 449 94 l 1
 266 -88 l 1
EndSplineSet
EndChar

StartChar: sym049
Encoding: 82 -1 82
Width: 959
Flags: HW
HStem: 25 64<314 463> 511 64<496 646>
LayerCount: 2
Fore
SplineSet
205 25 m 1
 189 54 l 1
 215 80 l 1
 214 80 l 1
 646 511 l 1
 496 511 l 1
 496 575 l 1
 754 575 l 1
 771 546 l 1
 745 520 l 1
 314 89 l 1
 463 89 l 1
 463 25 l 1
 205 25 l 1
EndSplineSet
EndChar

StartChar: sym048
Encoding: 83 -1 83
Width: 959
Flags: HW
VStem: 205 64<316 465> 690 64<44 45 135 284>
LayerCount: 2
Fore
SplineSet
754 25 m 1
 725 9 l 1
 690 44 l 1
 690 45 l 1
 269 465 l 1
 269 316 l 1
 205 316 l 1
 205 575 l 1
 234 591 l 1
 690 135 l 1
 690 284 l 1
 754 284 l 1
 754 25 l 1
EndSplineSet
EndChar

StartChar: uni294A
Encoding: 84 10570 84
Width: 930
Flags: HW
HStem: 268 64<199 731>
LayerCount: 2
Fore
SplineSet
77 300 m 1
 259 483 l 1
 305 437 l 1
 199 332 l 1
 845 332 l 1
 853 300 l 1
 671 117 l 1
 625 163 l 1
 731 268 l 1
 85 268 l 1
 77 300 l 1
EndSplineSet
EndChar

StartChar: uni294C
Encoding: 85 10572 85
Width: 532
Flags: HW
VStem: 234 64<34 566>
LayerCount: 2
Fore
SplineSet
266 -88 m 1
 83 94 l 1
 129 140 l 1
 234 34 l 1
 234 680 l 1
 266 688 l 1
 449 506 l 1
 403 460 l 1
 298 566 l 1
 298 -80 l 1
 266 -88 l 1
EndSplineSet
EndChar

StartChar: sym04B
Encoding: 86 -1 86
Width: 959
Flags: HW
VStem: 205 64<135 284> 690 64<316 465 555 556>
LayerCount: 2
Fore
SplineSet
205 25 m 1
 205 284 l 1
 269 284 l 1
 269 135 l 1
 690 555 l 1
 690 556 l 1
 725 591 l 1
 754 575 l 1
 754 316 l 1
 690 316 l 1
 690 465 l 1
 234 9 l 1
 205 25 l 1
EndSplineSet
EndChar

StartChar: sym04A
Encoding: 87 -1 87
Width: 959
Flags: HW
HStem: 25 64<496 646> 511 64<314 463>
LayerCount: 2
Fore
SplineSet
754 25 m 1
 496 25 l 1
 496 89 l 1
 646 89 l 1
 214 520 l 1
 215 520 l 1
 189 546 l 1
 205 575 l 1
 463 575 l 1
 463 511 l 1
 314 511 l 1
 745 80 l 1
 771 54 l 1
 754 25 l 1
EndSplineSet
EndChar

StartChar: uni21CC
Encoding: 88 8652 88
Width: 930
Flags: HW
HStem: 178 64<199 840> 358 64<90 731>
LayerCount: 2
Fore
SplineSet
853 390 m 1
 845 358 l 1
 90 358 l 1
 90 422 l 1
 731 422 l 1
 625 527 l 1
 671 573 l 1
 853 390 l 1
77 210 m 1
 85 242 l 1
 840 242 l 1
 840 178 l 1
 199 178 l 1
 305 73 l 1
 259 27 l 1
 77 210 l 1
EndSplineSet
EndChar

StartChar: uni296E
Encoding: 89 10606 89
Width: 712
Flags: HW
VStem: 234 64<-75 566> 414 64<34 675>
LayerCount: 2
Fore
SplineSet
266 688 m 1
 298 680 l 1
 298 -75 l 1
 234 -75 l 1
 234 566 l 1
 129 460 l 1
 83 506 l 1
 266 688 l 1
446 -88 m 1
 414 -80 l 1
 414 675 l 1
 478 675 l 1
 478 34 l 1
 583 140 l 1
 629 94 l 1
 446 -88 l 1
EndSplineSet
EndChar

StartChar: sym04D
Encoding: 90 -1 90
Width: 1087
Flags: HW
HStem: -38 64<351 352 442 591> 574 64<496 645>
LayerCount: 2
Fore
SplineSet
754 638 m 1
 771 609 l 1
 592 432 415 253 237 76 c 1
 192 121 l 1
 645 574 l 1
 496 574 l 1
 496 638 l 1
 754 638 l 1
332 -38 m 1
 316 -9 l 1
 351 26 l 1
 352 26 l 1
 849 524 l 1
 895 479 l 1
 442 26 l 1
 591 26 l 1
 591 -38 l 1
 332 -38 l 1
EndSplineSet
EndChar

StartChar: sym04C
Encoding: 91 -1 91
Width: 1087
Flags: HW
VStem: 205 64<253 401> 817 64<199 347>
LayerCount: 2
Fore
SplineSet
205 511 m 1
 234 527 l 1
 260 502 l 1
 767 -6 l 1
 722 -51 l 1
 269 401 l 1
 269 253 l 1
 205 253 l 1
 205 511 l 1
881 89 m 1
 853 73 l 1
 827 98 l 1
 319 606 l 1
 364 651 l 1
 817 199 l 1
 817 347 l 1
 881 347 l 1
 881 89 l 1
EndSplineSet
EndChar

StartChar: uni21CB
Encoding: 92 8651 92
Width: 930
Flags: HW
HStem: 178 64<90 731> 358 64<199 840>
LayerCount: 2
Fore
SplineSet
853 210 m 1
 671 27 l 1
 625 73 l 1
 731 178 l 1
 90 178 l 1
 90 242 l 1
 845 242 l 1
 853 210 l 1
77 390 m 1
 259 573 l 1
 305 527 l 1
 199 422 l 1
 840 422 l 1
 840 358 l 1
 85 358 l 1
 77 390 l 1
EndSplineSet
EndChar

StartChar: uni296F
Encoding: 93 10607 93
Width: 712
Flags: HW
VStem: 234 64<34 675> 414 64<-75 566>
LayerCount: 2
Fore
SplineSet
446 688 m 1
 629 506 l 1
 583 460 l 1
 478 566 l 1
 478 -75 l 1
 414 -75 l 1
 414 680 l 1
 446 688 l 1
266 -88 m 1
 83 94 l 1
 129 140 l 1
 234 34 l 1
 234 675 l 1
 298 675 l 1
 298 -80 l 1
 266 -88 l 1
EndSplineSet
EndChar

StartChar: sym04F
Encoding: 94 -1 94
Width: 1087
Flags: HW
VStem: 205 64<199 347> 817 64<253 401>
LayerCount: 2
Fore
SplineSet
881 511 m 1
 881 253 l 1
 817 253 l 1
 817 401 l 1
 364 -51 l 1
 319 -6 l 1
 827 502 l 1
 853 527 l 1
 881 511 l 1
205 89 m 1
 205 347 l 1
 269 347 l 1
 269 199 l 1
 722 651 l 1
 767 606 l 1
 260 98 l 1
 234 73 l 1
 205 89 l 1
EndSplineSet
EndChar

StartChar: sym04E
Encoding: 95 -1 95
Width: 1087
Flags: HW
HStem: -38 64<496 645> 574 64<351 352 442 591>
LayerCount: 2
Fore
SplineSet
332 638 m 1
 591 638 l 1
 591 574 l 1
 442 574 l 1
 895 121 l 1
 849 76 l 1
 352 574 l 1
 351 574 l 1
 316 609 l 1
 332 638 l 1
754 -38 m 1
 496 -38 l 1
 496 26 l 1
 645 26 l 1
 192 479 l 1
 237 524 l 1
 735 26 735 26 771 -9 c 1
 754 -38 l 1
EndSplineSet
EndChar

StartChar: uni21E2
Encoding: 96 8674 96
Width: 930
Flags: HW
HStem: 268 64<90 328 499 731>
LayerCount: 2
Fore
SplineSet
90 268 m 1
 90 332 l 1
 328 332 l 1
 328 268 l 1
 90 268 l 1
853 300 m 1
 687 133 l 1
 641 179 l 1
 731 268 l 1
 499 268 l 1
 499 332 l 1
 731 332 l 1
 641 421 l 1
 687 467 l 1
 853 300 l 1
EndSplineSet
EndChar

StartChar: uni21E1
Encoding: 97 8673 97
Width: 532
Flags: HW
VStem: 234 64<-75 163 334 566>
LayerCount: 2
Fore
SplineSet
298 -75 m 1
 234 -75 l 1
 234 163 l 1
 298 163 l 1
 298 -75 l 1
266 688 m 1
 433 522 l 1
 387 476 l 1
 298 566 l 1
 298 334 l 1
 234 334 l 1
 234 566 l 1
 145 476 l 1
 99 522 l 1
 266 688 l 1
EndSplineSet
EndChar

StartChar: uni21E0
Encoding: 98 8672 98
Width: 930
Flags: HW
HStem: 268 64<199 431 602 840>
LayerCount: 2
Fore
SplineSet
840 332 m 1
 840 268 l 1
 602 268 l 1
 602 332 l 1
 840 332 l 1
77 300 m 1
 243 467 l 1
 289 421 l 1
 199 332 l 1
 431 332 l 1
 431 268 l 1
 199 268 l 1
 289 179 l 1
 243 133 l 1
 77 300 l 1
EndSplineSet
EndChar

StartChar: uni21E3
Encoding: 99 8675 99
Width: 532
Flags: HW
VStem: 234 64<34 266 437 675>
LayerCount: 2
Fore
SplineSet
234 675 m 1
 298 675 l 1
 298 437 l 1
 234 437 l 1
 234 675 l 1
266 -88 m 1
 99 78 l 1
 145 124 l 1
 234 34 l 1
 234 266 l 1
 298 266 l 1
 298 34 l 1
 387 124 l 1
 433 78 l 1
 266 -88 l 1
EndSplineSet
EndChar

StartChar: sym051
Encoding: 100 -1 100
Width: 959
Flags: HW
HStem: 511 64<519 646>
VStem: 690 64<339 465>
LayerCount: 2
Fore
SplineSet
237 12 m 1
 192 57 l 1
 360 226 l 1
 405 180 l 1
 237 12 l 1
754 575 m 1
 754 339 l 1
 690 339 l 1
 690 465 l 1
 527 302 l 1
 481 347 l 1
 646 511 l 1
 519 511 l 1
 519 575 l 1
 754 575 l 1
EndSplineSet
EndChar

StartChar: sym050
Encoding: 101 -1 101
Width: 959
Flags: HW
HStem: 511 64<314 441>
VStem: 205 64<339 465>
LayerCount: 2
Fore
SplineSet
767 57 m 1
 722 12 l 1
 554 180 l 1
 599 226 l 1
 767 57 l 1
205 575 m 1
 441 575 l 1
 441 511 l 1
 314 511 l 1
 478 347 l 1
 433 302 l 1
 269 465 l 1
 269 339 l 1
 205 339 l 1
 205 575 l 1
EndSplineSet
EndChar

StartChar: sym053
Encoding: 102 -1 102
Width: 959
Flags: HW
HStem: 25 64<314 441>
VStem: 205 64<135 261>
LayerCount: 2
Fore
SplineSet
722 588 m 1
 767 543 l 1
 599 374 l 1
 554 420 l 1
 722 588 l 1
205 25 m 1
 205 261 l 1
 269 261 l 1
 269 135 l 1
 433 298 l 1
 478 253 l 1
 314 89 l 1
 441 89 l 1
 441 25 l 1
 205 25 l 1
EndSplineSet
EndChar

StartChar: sym052
Encoding: 103 -1 103
Width: 959
Flags: HW
HStem: 25 64<519 646>
VStem: 690 64<135 261>
LayerCount: 2
Fore
SplineSet
192 543 m 1
 237 588 l 1
 405 420 l 1
 360 374 l 1
 192 543 l 1
754 25 m 1
 519 25 l 1
 519 89 l 1
 646 89 l 1
 481 253 l 1
 527 298 l 1
 690 135 l 1
 690 261 l 1
 754 261 l 1
 754 25 l 1
EndSplineSet
EndChar

StartChar: uni22B8
Encoding: 104 8888 104
Width: 930
Flags: HW
HStem: 153 64<637.948 747.848> 268 64<90 555.07> 383 64<637.948 747.848>
VStem: 776 64<245.152 354.848>
CounterMasks: 1 e0
LayerCount: 2
Fore
SplineSet
693 447 m 0
 774 447 840 381 840 300 c 0
 840 219 774 153 693 153 c 0
 619 153 563 205 549 268 c 1
 90 268 l 1
 90 332 l 1
 549 332 l 1
 563 395 619 447 693 447 c 0
693 217 m 0
 739 217 776 254 776 300 c 0
 776 346 739 383 693 383 c 0
 652 383 610 352 610 300 c 0
 610 248 652 217 693 217 c 0
EndSplineSet
EndChar

StartChar: uni2AEF
Encoding: 105 10991 105
Width: 532
Flags: HW
HStem: 611 64<210.549 321.451>
VStem: 119 64<472.948 583.878> 234 64<-75 390.07> 349 64<472.948 583.878>
CounterMasks: 1 70
LayerCount: 2
Fore
SplineSet
266 675 m 0
 342 675 413 614 413 528 c 0
 413 454 361 398 298 384 c 1
 298 -75 l 1
 234 -75 l 1
 234 384 l 1
 171 398 119 454 119 528 c 0
 119 614 190 675 266 675 c 0
266 445 m 0
 318 445 349 487 349 528 c 0
 349 574 312 611 266 611 c 0
 220 611 183 574 183 528 c 0
 183 487 214 445 266 445 c 0
EndSplineSet
EndChar

StartChar: uni27DC
Encoding: 106 10204 106
Width: 930
Flags: HW
HStem: 153 64<181.122 292.052> 268 64<374.93 840> 383 64<181.122 292.052>
VStem: 90 64<244.549 355.451>
CounterMasks: 1 e0
LayerCount: 2
Fore
SplineSet
237 447 m 0
 311 447 367 395 381 332 c 1
 840 332 l 1
 840 268 l 1
 381 268 l 1
 367 205 311 153 237 153 c 0
 151 153 90 224 90 300 c 0
 90 376 151 447 237 447 c 0
237 217 m 0
 278 217 320 248 320 300 c 0
 320 352 278 383 237 383 c 0
 191 383 154 346 154 300 c 0
 154 254 191 217 237 217 c 0
EndSplineSet
EndChar

StartChar: uni2AF0
Encoding: 107 10992 107
Width: 532
Flags: HW
HStem: -75 64<210.549 321.451>
VStem: 119 64<16.1218 127.052> 234 64<209.93 675> 349 64<16.1218 127.052>
CounterMasks: 1 70
LayerCount: 2
Fore
SplineSet
298 216 m 1
 361 202 413 146 413 72 c 0
 413 -14 342 -75 266 -75 c 0
 190 -75 119 -14 119 72 c 0
 119 146 171 202 234 216 c 1
 234 675 l 1
 298 675 l 1
 298 216 l 1
266 -11 m 0
 312 -11 349 26 349 72 c 0
 349 113 318 155 266 155 c 0
 214 155 183 113 183 72 c 0
 183 26 220 -11 266 -11 c 0
EndSplineSet
EndChar

StartChar: sym054
Encoding: 108 -1 108
Width: 930
Flags: HW
HStem: 153 294<615.952 769.142> 268 64<90 555.07>
LayerCount: 2
Fore
SplineSet
693 447 m 0x80
 774 447 840 381 840 300 c 0
 840 219 774 153 693 153 c 0x80
 619 153 563 205 549 268 c 1
 90 268 l 1
 90 332 l 1
 549 332 l 1x40
 563 395 619 447 693 447 c 0x80
EndSplineSet
EndChar

StartChar: sym056
Encoding: 109 -1 109
Width: 532
Flags: HW
VStem: 119 294<450.952 603.309> 234 64<-75 390.07>
LayerCount: 2
Fore
SplineSet
266 675 m 0x80
 342 675 413 614 413 528 c 0x80
 413 454 361 398 298 384 c 1
 298 -75 l 1
 234 -75 l 1
 234 384 l 1x40
 171 398 119 454 119 528 c 0
 119 614 190 675 266 675 c 0x80
EndSplineSet
EndChar

StartChar: sym055
Encoding: 110 -1 110
Width: 930
Flags: HW
HStem: 153 294<161.691 314.048> 268 64<374.93 840>
LayerCount: 2
Fore
SplineSet
237 447 m 0x80
 311 447 367 395 381 332 c 1
 840 332 l 1
 840 268 l 1
 381 268 l 1x40
 367 205 311 153 237 153 c 0
 151 153 90 224 90 300 c 0
 90 376 151 447 237 447 c 0x80
EndSplineSet
EndChar

StartChar: sym057
Encoding: 111 -1 111
Width: 532
Flags: HW
VStem: 119 294<-3.30949 149.048> 234 64<209.93 675>
LayerCount: 2
Fore
SplineSet
298 216 m 1x40
 361 202 413 146 413 72 c 0
 413 -14 342 -75 266 -75 c 0
 190 -75 119 -14 119 72 c 0x80
 119 146 171 202 234 216 c 1
 234 675 l 1
 298 675 l 1
 298 216 l 1x40
EndSplineSet
EndChar

StartChar: uni29DF
Encoding: 112 10719 112
Width: 1230
Flags: HW
HStem: 153 64<181.122 292.052 937.948 1048.88> 268 64<374.93 855.07> 383 64<181.122 292.052 937.948 1048.88>
VStem: 90 64<244.549 355.451> 1076 64<244.549 355.451>
CounterMasks: 1 e0
LayerCount: 2
Fore
SplineSet
993 447 m 0
 1079 447 1140 376 1140 300 c 0
 1140 224 1079 153 993 153 c 0
 919 153 863 205 849 268 c 1
 381 268 l 1
 367 205 311 153 237 153 c 0
 151 153 90 224 90 300 c 0
 90 376 151 447 237 447 c 0
 311 447 367 395 381 332 c 1
 849 332 l 1
 863 395 919 447 993 447 c 0
993 217 m 0
 1039 217 1076 254 1076 300 c 0
 1076 346 1039 383 993 383 c 0
 952 383 910 352 910 300 c 0
 910 248 952 217 993 217 c 0
237 217 m 0
 278 217 320 248 320 300 c 0
 320 352 278 383 237 383 c 0
 191 383 154 346 154 300 c 0
 154 254 191 217 237 217 c 0
EndSplineSet
EndChar

StartChar: sym058
Encoding: 113 -1 113
Width: 1230
Flags: HW
HStem: 153 294<161.691 314.048 915.952 1068.31> 268 64<374.93 855.07>
LayerCount: 2
Fore
SplineSet
993 447 m 0x80
 1079 447 1140 376 1140 300 c 0
 1140 224 1079 153 993 153 c 0x80
 919 153 863 205 849 268 c 1
 381 268 l 1x40
 367 205 311 153 237 153 c 0
 151 153 90 224 90 300 c 0
 90 376 151 447 237 447 c 0x80
 311 447 367 395 381 332 c 1
 849 332 l 1x40
 863 395 919 447 993 447 c 0x80
EndSplineSet
EndChar

StartChar: uni22B7
Encoding: 114 8887 114
Width: 1230
Flags: HW
HStem: 153 294<161.691 314.048> 153 64<937.948 1048.88> 268 64<374.93 855.07> 383 64<937.948 1048.88>
VStem: 1076 64<244.549 355.451>
LayerCount: 2
Fore
SplineSet
993 447 m 0x38
 1079 447 1140 376 1140 300 c 0
 1140 224 1079 153 993 153 c 0
 919 153 863 205 849 268 c 1
 381 268 l 1x78
 367 205 311 153 237 153 c 0
 151 153 90 224 90 300 c 0
 90 376 151 447 237 447 c 0x88
 311 447 367 395 381 332 c 1
 849 332 l 1
 863 395 919 447 993 447 c 0x38
993 217 m 0
 1039 217 1076 254 1076 300 c 0
 1076 346 1039 383 993 383 c 0
 952 383 910 352 910 300 c 0
 910 248 952 217 993 217 c 0
EndSplineSet
EndChar

StartChar: uni22B6
Encoding: 115 8886 115
Width: 1230
Flags: HW
HStem: 153 294<915.952 1068.31> 153 64<181.122 292.052> 268 64<374.93 855.07> 383 64<181.122 292.052>
VStem: 90 64<244.549 355.451>
LayerCount: 2
Fore
SplineSet
993 447 m 0x88
 1079 447 1140 376 1140 300 c 0
 1140 224 1079 153 993 153 c 0x88
 919 153 863 205 849 268 c 1
 381 268 l 1
 367 205 311 153 237 153 c 0
 151 153 90 224 90 300 c 0
 90 376 151 447 237 447 c 0
 311 447 367 395 381 332 c 1
 849 332 l 1x78
 863 395 919 447 993 447 c 0x88
237 217 m 0x58
 278 217 320 248 320 300 c 0
 320 352 278 383 237 383 c 0
 191 383 154 346 154 300 c 0
 154 254 191 217 237 217 c 0x58
EndSplineSet
EndChar

StartChar: sym05A
Encoding: 116 -1 116
Width: 930
Flags: HW
HStem: 65 64<90 364.434> 268 64<90 431 491.832 840> 471 64<90 364.434>
VStem: 431 64<203.71 268 332 396.29>
CounterMasks: 1 e0
LayerCount: 2
Fore
SplineSet
90 129 m 1
 299 129 l 2
 371 129 420 193 431 268 c 1
 90 268 l 1
 90 332 l 1
 431 332 l 1
 420 407 371 471 299 471 c 2
 90 471 l 1
 90 535 l 1
 299 535 l 2
 406 535 482 442 495 332 c 1
 840 332 l 1
 840 268 l 1
 495 268 l 1
 482 158 406 65 299 65 c 2
 90 65 l 1
 90 129 l 1
EndSplineSet
EndChar

StartChar: uni22D4
Encoding: 117 8916 117
Width: 649
Flags: HW
HStem: 266 64<228.71 293 357 421.183>
VStem: 90 64<-75 199.434> 293 64<-75 266 326.832 675> 495 64<-75 199.434>
LayerCount: 2
Fore
SplineSet
495 -75 m 1
 495 134 l 2
 495 206 432 255 357 266 c 1
 357 -75 l 1
 293 -75 l 1
 293 266 l 1
 217 255 154 206 154 134 c 2
 154 -75 l 1
 90 -75 l 1
 90 134 l 2
 90 241 183 317 293 330 c 1
 293 675 l 1
 357 675 l 1
 357 330 l 1
 467 317 559 241 559 134 c 2
 559 -75 l 1
 495 -75 l 1
EndSplineSet
EndChar

StartChar: sym05B
Encoding: 118 -1 118
Width: 930
Flags: HW
HStem: 65 64<565.566 840> 268 64<90 438.168 499 840> 471 64<565.566 840>
VStem: 435 64<203.71 268 332 396.29>
CounterMasks: 1 e0
LayerCount: 2
Fore
SplineSet
840 471 m 1
 631 471 l 2
 559 471 510 407 499 332 c 1
 840 332 l 1
 840 268 l 1
 499 268 l 1
 510 193 559 129 631 129 c 2
 840 129 l 1
 840 65 l 1
 631 65 l 2
 524 65 448 158 435 268 c 1
 90 268 l 1
 90 332 l 1
 435 332 l 1
 448 442 524 535 631 535 c 2
 840 535 l 1
 840 471 l 1
EndSplineSet
EndChar

StartChar: sym059
Encoding: 119 -1 119
Width: 649
Flags: HW
HStem: 270 64<228.71 293 357 421.183>
VStem: 90 64<400.566 675> 293 64<-75 273.168 334 675> 495 64<400.566 675>
LayerCount: 2
Fore
SplineSet
154 675 m 1
 154 466 l 2
 154 394 217 345 293 334 c 1
 293 675 l 1
 357 675 l 1
 357 334 l 1
 432 345 495 394 495 466 c 2
 495 675 l 1
 559 675 l 1
 559 466 l 2
 559 359 467 283 357 270 c 1
 357 -75 l 1
 293 -75 l 1
 293 270 l 1
 183 283 90 359 90 466 c 2
 90 675 l 1
 154 675 l 1
EndSplineSet
EndChar

StartChar: uni21C9
Encoding: 120 8649 120
Width: 930
Flags: HW
HStem: -11 21G<667 706.88> 124 64<90 731> 412 64<90 731>
LayerCount: 2
Fore
SplineSet
853 156 m 1
 687 -11 l 1
 641 35 l 1
 731 124 l 1
 90 124 l 1
 90 188 l 1
 731 188 l 1
 641 277 l 1
 664 300 l 1
 641 323 l 1
 731 412 l 1
 90 412 l 1
 90 476 l 1
 731 476 l 1
 641 565 l 1
 687 611 l 1
 853 444 l 1
 710 300 l 1
 853 156 l 1
EndSplineSet
EndChar

StartChar: uni21C8
Encoding: 121 8648 121
Width: 820
Flags: HW
VStem: 234 64<-75 566> 522 64<-75 566>
LayerCount: 2
Fore
SplineSet
554 688 m 1
 721 522 l 1
 675 476 l 1
 586 566 l 1
 586 -75 l 1
 522 -75 l 1
 522 566 l 1
 433 476 l 1
 410 499 l 1
 387 476 l 1
 298 566 l 1
 298 -75 l 1
 234 -75 l 1
 234 566 l 1
 145 476 l 1
 99 522 l 1
 266 688 l 1
 410 545 l 1
 554 688 l 1
EndSplineSet
EndChar

StartChar: uni21C7
Encoding: 122 8647 122
Width: 930
Flags: HW
HStem: -11 21G<223.12 263> 124 64<199 840> 412 64<199 840>
LayerCount: 2
Fore
SplineSet
77 444 m 1
 243 611 l 1
 289 565 l 1
 199 476 l 1
 840 476 l 1
 840 412 l 1
 199 412 l 1
 289 323 l 1
 266 300 l 1
 289 277 l 1
 199 188 l 1
 840 188 l 1
 840 124 l 1
 199 124 l 1
 289 35 l 1
 243 -11 l 1
 77 156 l 1
 220 300 l 1
 77 444 l 1
EndSplineSet
EndChar

StartChar: uni21CA
Encoding: 123 8650 123
Width: 820
Flags: HW
VStem: 234 64<34 675> 522 64<34 675>
LayerCount: 2
Fore
SplineSet
266 -88 m 1
 99 78 l 1
 145 124 l 1
 234 34 l 1
 234 675 l 1
 298 675 l 1
 298 34 l 1
 387 124 l 1
 410 101 l 1
 433 124 l 1
 522 34 l 1
 522 675 l 1
 586 675 l 1
 586 34 l 1
 675 124 l 1
 721 78 l 1
 554 -88 l 1
 410 55 l 1
 266 -88 l 1
EndSplineSet
EndChar

StartChar: sym05D
Encoding: 124 -1 124
Width: 1163
Flags: HW
HStem: 409 64<754 849> 612 64<519 645>
VStem: 690 64<473 567> 894 64<237 364>
LayerCount: 2
Fore
SplineSet
958 473 m 1
 958 237 l 1
 894 237 l 1
 894 364 l 1
 441 -90 l 1
 395 -44 l 1
 849 409 l 1
 722 409 l 1
 722 441 l 1
 690 441 l 1
 690 567 l 1
 237 114 l 1
 192 159 l 1
 645 612 l 1
 519 612 l 1
 519 676 l 1
 754 676 l 1
 754 473 l 1
 958 473 l 1
EndSplineSet
EndChar

StartChar: sym05C
Encoding: 125 -1 125
Width: 1163
Flags: HW
HStem: 409 64<314 409> 612 64<518 644>
VStem: 205 64<237 363> 409 64<473 567>
LayerCount: 2
Fore
SplineSet
409 676 m 1
 644 676 l 1
 644 612 l 1
 518 612 l 1
 971 159 l 1
 926 114 l 1
 473 567 l 1
 473 441 l 1
 441 441 l 1
 441 409 l 1
 314 409 l 1
 767 -44 l 1
 722 -90 l 1
 269 363 l 1
 269 237 l 1
 205 237 l 1
 205 473 l 1
 409 473 l 1
 409 676 l 1
EndSplineSet
EndChar

StartChar: sym05F
Encoding: 126 -1 126
Width: 1163
Flags: HW
HStem: -76 64<518 644> 127 64<314 409>
VStem: 205 64<237 363> 409 64<33 127>
LayerCount: 2
Fore
SplineSet
205 127 m 1
 205 363 l 1
 269 363 l 1
 269 237 l 1
 722 690 l 1
 767 644 l 1
 314 191 l 1
 441 191 l 1
 441 159 l 1
 473 159 l 1
 473 33 l 1
 926 486 l 1
 971 441 l 1
 518 -12 l 1
 644 -12 l 1
 644 -76 l 1
 409 -76 l 1
 409 127 l 1
 205 127 l 1
EndSplineSet
EndChar

StartChar: sym05E
Encoding: 127 -1 127
Width: 1163
Flags: HW
HStem: -76 64<519 645> 127 64<754 849>
VStem: 690 64<33 127> 894 64<236 363>
LayerCount: 2
Fore
SplineSet
754 -76 m 1
 519 -76 l 1
 519 -12 l 1
 645 -12 l 1
 192 441 l 1
 237 486 l 1
 690 33 l 1
 690 159 l 1
 722 159 l 1
 722 191 l 1
 849 191 l 1
 395 644 l 1
 441 690 l 1
 894 236 l 1
 894 363 l 1
 958 363 l 1
 958 127 l 1
 754 127 l 1
 754 -76 l 1
EndSplineSet
EndChar

StartChar: uni21C4
Encoding: 128 8644 128
Width: 930
Flags: HW
HStem: -11 21G<223.12 263> 124 64<199 840> 412 64<90 731>
LayerCount: 2
Fore
SplineSet
853 444 m 1
 687 277 l 1
 641 323 l 1
 731 412 l 1
 90 412 l 1
 90 476 l 1
 731 476 l 1
 641 565 l 1
 687 611 l 1
 853 444 l 1
77 156 m 1
 243 323 l 1
 289 277 l 1
 199 188 l 1
 840 188 l 1
 840 124 l 1
 199 124 l 1
 289 35 l 1
 243 -11 l 1
 77 156 l 1
EndSplineSet
EndChar

StartChar: uni21C5
Encoding: 129 8645 129
Width: 820
Flags: HW
VStem: 234 64<-75 566> 522 64<34 675>
LayerCount: 2
Fore
SplineSet
266 688 m 1
 433 522 l 1
 387 476 l 1
 298 566 l 1
 298 -75 l 1
 234 -75 l 1
 234 566 l 1
 145 476 l 1
 99 522 l 1
 266 688 l 1
554 -88 m 1
 387 78 l 1
 433 124 l 1
 522 34 l 1
 522 675 l 1
 586 675 l 1
 586 34 l 1
 675 124 l 1
 721 78 l 1
 554 -88 l 1
EndSplineSet
EndChar

StartChar: sym061
Encoding: 130 -1 130
Width: 1163
Flags: HW
HStem: -76 64<518 644> 612 64<519 645>
VStem: 409 64<33 159> 690 64<441 567>
LayerCount: 2
Fore
SplineSet
754 676 m 1
 754 441 l 1
 690 441 l 1
 690 567 l 1
 237 114 l 1
 192 159 l 1
 645 612 l 1
 519 612 l 1
 519 676 l 1
 754 676 l 1
409 -76 m 1
 409 159 l 1
 473 159 l 1
 473 33 l 1
 926 486 l 1
 971 441 l 1
 518 -12 l 1
 644 -12 l 1
 644 -76 l 1
 409 -76 l 1
EndSplineSet
EndChar

StartChar: sym060
Encoding: 131 -1 131
Width: 1163
Flags: HW
HStem: 127 64<722 849> 409 64<314 441>
VStem: 205 64<237 363> 894 64<236 363>
LayerCount: 2
Fore
SplineSet
205 473 m 1
 441 473 l 1
 441 409 l 1
 314 409 l 1
 767 -44 l 1
 722 -90 l 1
 269 363 l 1
 269 237 l 1
 205 237 l 1
 205 473 l 1
958 127 m 1
 722 127 l 1
 722 191 l 1
 849 191 l 1
 395 644 l 1
 441 690 l 1
 894 236 l 1
 894 363 l 1
 958 363 l 1
 958 127 l 1
EndSplineSet
EndChar

StartChar: uni21C6
Encoding: 132 8646 132
Width: 930
Flags: HW
HStem: -11 21G<667 706.88> 124 64<90 731> 412 64<199 840>
LayerCount: 2
Fore
SplineSet
853 156 m 1
 687 -11 l 1
 641 35 l 1
 731 124 l 1
 90 124 l 1
 90 188 l 1
 731 188 l 1
 641 277 l 1
 687 323 l 1
 853 156 l 1
77 444 m 1
 243 611 l 1
 289 565 l 1
 199 476 l 1
 840 476 l 1
 840 412 l 1
 199 412 l 1
 289 323 l 1
 243 277 l 1
 77 444 l 1
EndSplineSet
EndChar

StartChar: uni21F5
Encoding: 133 8693 133
Width: 820
Flags: HW
VStem: 234 64<34 675> 522 64<-75 566>
LayerCount: 2
Fore
SplineSet
554 688 m 1
 721 522 l 1
 675 476 l 1
 586 566 l 1
 586 -75 l 1
 522 -75 l 1
 522 566 l 1
 433 476 l 1
 387 522 l 1
 554 688 l 1
266 -88 m 1
 99 78 l 1
 145 124 l 1
 234 34 l 1
 234 675 l 1
 298 675 l 1
 298 34 l 1
 387 124 l 1
 433 78 l 1
 266 -88 l 1
EndSplineSet
EndChar

StartChar: sym063
Encoding: 134 -1 134
Width: 1163
Flags: HW
HStem: 127 64<314 441> 409 64<722 849>
VStem: 205 64<237 363> 894 64<237 364>
LayerCount: 2
Fore
SplineSet
958 473 m 1
 958 237 l 1
 894 237 l 1
 894 364 l 1
 441 -90 l 1
 395 -44 l 1
 849 409 l 1
 722 409 l 1
 722 473 l 1
 958 473 l 1
205 127 m 1
 205 363 l 1
 269 363 l 1
 269 237 l 1
 722 690 l 1
 767 644 l 1
 314 191 l 1
 441 191 l 1
 441 127 l 1
 205 127 l 1
EndSplineSet
EndChar

StartChar: sym062
Encoding: 135 -1 135
Width: 1163
Flags: HW
HStem: -76 64<519 645> 612 64<518 644>
VStem: 409 64<441 567> 690 64<33 159>
LayerCount: 2
Fore
SplineSet
409 676 m 1
 644 676 l 1
 644 612 l 1
 518 612 l 1
 971 159 l 1
 926 114 l 1
 473 567 l 1
 473 441 l 1
 409 441 l 1
 409 676 l 1
754 -76 m 1
 519 -76 l 1
 519 -12 l 1
 645 -12 l 1
 192 441 l 1
 237 486 l 1
 690 33 l 1
 690 159 l 1
 754 159 l 1
 754 -76 l 1
EndSplineSet
EndChar

StartChar: uni219D
Encoding: 136 8605 136
Width: 930
Flags: HW
HStem: 196 64<448.519 549.324> 268 64<611.074 731> 340 64<213.312 328.956>
CounterMasks: 1 e0
LayerCount: 2
Fore
SplineSet
503 260 m 0
 544 260 591 332 656 332 c 2
 731 332 l 1
 641 421 l 1
 687 467 l 1
 853 300 l 1
 687 133 l 1
 641 179 l 1
 731 268 l 1
 656 268 l 2
 621 268 566 196 503 196 c 0
 445 196 396 234 363 282 c 0
 341 312 312 340 274 340 c 0
 219 340 181 292 148 246 c 1
 96 282 l 1
 140 346 198 404 274 404 c 0
 332 404 381 366 415 318 c 0
 437 288 466 260 503 260 c 0
EndSplineSet
EndChar

StartChar: sym064.alt
Encoding: 137 -1 137
Width: 532
Flags: HW
VStem: 162 64<48.312 163.956> 234 64<446.074 566> 306 64<283.519 384.324>
CounterMasks: 1 e0
LayerCount: 2
Fore
SplineSet
306 338 m 0
 306 379 234 426 234 491 c 2
 234 566 l 1
 145 476 l 1
 99 522 l 1
 266 688 l 1
 433 522 l 1
 387 476 l 1
 298 566 l 1
 298 491 l 2
 298 456 370 401 370 338 c 0
 370 280 332 231 284 198 c 0
 254 176 226 147 226 109 c 0
 226 54 274 16 320 -17 c 1
 284 -69 l 1
 220 -25 162 33 162 109 c 0
 162 167 200 216 248 250 c 0
 278 272 306 301 306 338 c 0
EndSplineSet
EndChar

StartChar: uni219C.alt
Encoding: 138 -1 138
Width: 930
Flags: HW
HStem: 196 64<601.044 716.688> 268 64<199 318.926> 340 64<380.676 481.481>
CounterMasks: 1 e0
LayerCount: 2
Fore
SplineSet
427 340 m 0
 386 340 339 268 274 268 c 2
 199 268 l 1
 289 179 l 1
 243 133 l 1
 77 300 l 1
 243 467 l 1
 289 421 l 1
 199 332 l 1
 274 332 l 2
 309 332 364 404 427 404 c 0
 485 404 534 366 567 318 c 0
 589 288 618 260 656 260 c 0
 711 260 749 308 782 354 c 1
 834 318 l 1
 790 254 732 196 656 196 c 0
 598 196 549 234 515 282 c 0
 493 312 464 340 427 340 c 0
EndSplineSet
EndChar

StartChar: sym065
Encoding: 139 -1 139
Width: 532
Flags: HW
VStem: 162 64<215.676 316.481> 234 64<34 153.926> 306 64<436.044 551.688>
CounterMasks: 1 e0
LayerCount: 2
Fore
SplineSet
226 262 m 0
 226 221 298 174 298 109 c 2
 298 34 l 1
 387 124 l 1
 433 78 l 1
 266 -88 l 1
 99 78 l 1
 145 124 l 1
 234 34 l 1
 234 109 l 2
 234 144 162 199 162 262 c 0
 162 320 200 369 248 402 c 0
 278 424 306 453 306 491 c 0
 306 546 258 584 212 617 c 1
 248 669 l 1
 312 625 370 567 370 491 c 0
 370 433 332 384 284 350 c 0
 254 328 226 299 226 262 c 0
EndSplineSet
EndChar

StartChar: uni219D.alt
Encoding: 140 -1 140
Width: 930
Flags: HW
HStem: 196 64<213.312 328.956> 268 64<611.074 731> 340 64<448.519 549.324>
CounterMasks: 1 e0
LayerCount: 2
Fore
SplineSet
503 404 m 0
 566 404 621 332 656 332 c 2
 731 332 l 1
 641 421 l 1
 687 467 l 1
 853 300 l 1
 687 133 l 1
 641 179 l 1
 731 268 l 1
 656 268 l 2
 591 268 544 340 503 340 c 0
 466 340 437 312 415 282 c 0
 381 234 332 196 274 196 c 0
 198 196 140 254 96 318 c 1
 148 354 l 1
 181 308 219 260 274 260 c 0
 312 260 341 288 363 318 c 0
 396 366 445 404 503 404 c 0
EndSplineSet
EndChar

StartChar: sym064
Encoding: 141 -1 141
Width: 532
Flags: HW
VStem: 162 64<283.519 384.324> 234 64<446.074 566> 306 64<48.312 163.956>
CounterMasks: 1 e0
LayerCount: 2
Fore
SplineSet
162 338 m 0
 162 401 234 456 234 491 c 2
 234 566 l 1
 145 476 l 1
 99 522 l 1
 266 688 l 1
 433 522 l 1
 387 476 l 1
 298 566 l 1
 298 491 l 2
 298 426 226 379 226 338 c 0
 226 301 254 272 284 250 c 0
 332 216 370 167 370 109 c 0
 370 33 312 -25 248 -69 c 1
 212 -17 l 1
 258 16 306 54 306 109 c 0
 306 147 278 176 248 198 c 0
 200 231 162 280 162 338 c 0
EndSplineSet
EndChar

StartChar: uni219C
Encoding: 142 8604 142
Width: 930
Flags: HW
HStem: 196 64<380.676 481.481> 268 64<199 318.926> 340 64<601.044 716.688>
CounterMasks: 1 e0
LayerCount: 2
Fore
SplineSet
427 196 m 0
 364 196 309 268 274 268 c 2
 199 268 l 1
 289 179 l 1
 243 133 l 1
 77 300 l 1
 243 467 l 1
 289 421 l 1
 199 332 l 1
 274 332 l 2
 339 332 386 260 427 260 c 0
 464 260 493 288 515 318 c 0
 549 366 598 404 656 404 c 0
 732 404 790 346 834 282 c 1
 782 246 l 1
 749 292 711 340 656 340 c 0
 618 340 589 312 567 282 c 0
 534 234 485 196 427 196 c 0
EndSplineSet
EndChar

StartChar: sym065.alt
Encoding: 143 -1 143
Width: 532
Flags: HW
VStem: 162 64<436.044 551.688> 234 64<34 153.926> 306 64<215.676 316.481>
CounterMasks: 1 e0
LayerCount: 2
Fore
SplineSet
370 262 m 0
 370 199 298 144 298 109 c 2
 298 34 l 1
 387 124 l 1
 433 78 l 1
 266 -88 l 1
 99 78 l 1
 145 124 l 1
 234 34 l 1
 234 109 l 2
 234 174 306 221 306 262 c 0
 306 299 278 328 248 350 c 0
 200 384 162 433 162 491 c 0
 162 567 220 625 284 669 c 1
 320 617 l 1
 274 584 226 546 226 491 c 0
 226 453 254 424 284 402 c 0
 332 369 370 320 370 262 c 0
EndSplineSet
EndChar

StartChar: uni21AD
Encoding: 144 8621 144
Width: 1080
Flags: HW
HStem: 196 64<599.519 698.905> 268 64<199 319.125 759.404 881> 340 64<380.14 480.481>
CounterMasks: 1 e0
LayerCount: 2
Fore
SplineSet
654 260 m 0
 688 260 745 332 806 332 c 2
 881 332 l 1
 791 421 l 1
 837 467 l 1
 1003 300 l 1
 837 133 l 1
 791 179 l 1
 881 268 l 1
 806 268 l 2
 766 268 718 196 654 196 c 0
 596 196 547 234 514 282 c 0
 492 312 463 340 426 340 c 0
 386 340 338 268 274 268 c 2
 199 268 l 1
 289 179 l 1
 243 133 l 1
 77 300 l 1
 243 467 l 1
 289 421 l 1
 199 332 l 1
 274 332 l 2
 314 332 362 404 426 404 c 0
 484 404 533 366 566 318 c 0
 588 288 617 260 654 260 c 0
EndSplineSet
EndChar

StartChar: sym066.alt
Encoding: 145 -1 145
Width: 532
Flags: HW
HStem: 551 21G<125 164.778 367.222 407> 743 20G<245.88 286.12>
VStem: 162 64<140.14 240.481> 234 64<-41 79.125 519.404 641> 306 64<359.519 458.905>
CounterMasks: 1 38
LayerCount: 2
Fore
SplineSet
306 414 m 0
 306 448 234 505 234 566 c 2
 234 641 l 1
 145 551 l 1
 99 597 l 1
 266 763 l 1
 433 597 l 1
 387 551 l 1
 298 641 l 1
 298 566 l 2
 298 526 370 478 370 414 c 0
 370 356 332 307 284 274 c 0
 254 252 226 223 226 186 c 0
 226 146 298 98 298 34 c 2
 298 -41 l 1
 387 49 l 1
 433 3 l 1
 266 -163 l 1
 99 3 l 1
 145 49 l 1
 234 -41 l 1
 234 34 l 2
 234 74 162 122 162 186 c 0
 162 244 200 293 248 326 c 0
 278 348 306 377 306 414 c 0
EndSplineSet
EndChar

StartChar: uni21AD.alt
Encoding: 146 -1 146
Width: 1080
Flags: HW
HStem: 196 64<380.14 480.481> 268 64<199 319.125 759.404 881> 340 64<599.519 698.905>
CounterMasks: 1 e0
LayerCount: 2
Fore
SplineSet
654 404 m 0
 718 404 766 332 806 332 c 2
 881 332 l 1
 791 421 l 1
 837 467 l 1
 1003 300 l 1
 837 133 l 1
 791 179 l 1
 881 268 l 1
 806 268 l 2
 745 268 688 340 654 340 c 0
 617 340 588 312 566 282 c 0
 533 234 484 196 426 196 c 0
 362 196 314 268 274 268 c 2
 199 268 l 1
 289 179 l 1
 243 133 l 1
 77 300 l 1
 243 467 l 1
 289 421 l 1
 199 332 l 1
 274 332 l 2
 338 332 386 260 426 260 c 0
 463 260 492 288 514 318 c 0
 547 366 596 404 654 404 c 0
EndSplineSet
EndChar

StartChar: sym066
Encoding: 147 -1 147
Width: 532
Flags: HW
HStem: 551 21G<125 164.778 367.222 407> 743 20G<245.88 286.12>
VStem: 162 64<359.519 458.905> 234 64<-41 79.125 519.404 641> 306 64<140.14 240.481>
CounterMasks: 1 38
LayerCount: 2
Fore
SplineSet
162 414 m 0
 162 478 234 526 234 566 c 2
 234 641 l 1
 145 551 l 1
 99 597 l 1
 266 763 l 1
 433 597 l 1
 387 551 l 1
 298 641 l 1
 298 566 l 2
 298 505 226 448 226 414 c 0
 226 377 254 348 284 326 c 0
 332 293 370 244 370 186 c 0
 370 122 298 74 298 34 c 2
 298 -41 l 1
 387 49 l 1
 433 3 l 1
 266 -163 l 1
 99 3 l 1
 145 49 l 1
 234 -41 l 1
 234 34 l 2
 234 98 306 146 306 186 c 0
 306 223 278 252 248 274 c 0
 200 307 162 356 162 414 c 0
EndSplineSet
EndChar

StartChar: sym069
Encoding: 148 -1 148
Width: 930
Flags: HW
HStem: 341 63<293.112 535.071>
LayerCount: 2
Fore
SplineSet
412 404 m 0
 475 404 628 388 750 245 c 1
 760 362 l 1
 823 356 l 1
 803 121 l 1
 568 142 l 1
 574 206 l 1
 709 194 l 1
 674 238 574 341 412 341 c 0
 308 341 208 295 148 210 c 1
 96 246 l 1
 167 349 287 404 412 404 c 0
EndSplineSet
EndChar

StartChar: sym068
Encoding: 149 -1 149
Width: 532
Flags: HW
VStem: 162 63<128.112 370.071>
LayerCount: 2
Fore
SplineSet
162 247 m 0
 162 310 178 463 321 585 c 1
 204 595 l 1
 210 658 l 1
 445 638 l 1
 424 403 l 1
 360 409 l 1
 372 544 l 1
 328 509 225 409 225 247 c 0
 225 143 271 43 356 -17 c 1
 320 -69 l 1
 217 2 162 122 162 247 c 0
EndSplineSet
EndChar

StartChar: sym067
Encoding: 150 -1 150
Width: 930
Flags: HW
HStem: 196 63<394.929 636.888>
LayerCount: 2
Fore
SplineSet
518 196 m 0
 455 196 302 212 180 355 c 1
 170 238 l 1
 107 244 l 1
 127 479 l 1
 362 458 l 1
 356 394 l 1
 221 406 l 1
 256 362 356 259 518 259 c 0
 622 259 722 305 782 390 c 1
 834 354 l 1
 763 251 643 196 518 196 c 0
EndSplineSet
EndChar

StartChar: uni2938
Encoding: 151 10552 151
Width: 532
Flags: HW
VStem: 307 63<229.929 471.888>
LayerCount: 2
Fore
SplineSet
370 353 m 0
 370 290 354 137 211 15 c 1
 328 5 l 1
 322 -58 l 1
 87 -38 l 1
 108 197 l 1
 172 191 l 1
 160 56 l 1
 204 91 307 191 307 353 c 0
 307 457 261 557 176 617 c 1
 212 669 l 1
 315 598 370 478 370 353 c 0
EndSplineSet
EndChar

StartChar: sym06C
Encoding: 152 -1 152
Width: 959
Flags: HW
HStem: 1 21G<254.5 320> 400 64<554.54 719>
VStem: 251 64<11.6271 173.826>
LayerCount: 2
Fore
SplineSet
251 62 m 0
 251 279 442 464 683 464 c 0
 695 464 707 463 719 462 c 1
 644 552 l 1
 693 593 l 1
 845 413 l 1
 664 261 l 1
 623 310 l 1
 728 398 l 1
 713 400 699 400 684 400 c 0
 476 400 315 243 315 65 c 0
 315 48 317 30 320 12 c 1
 256 1 l 1
 253 21 251 42 251 62 c 0
EndSplineSet
EndChar

StartChar: sym06B
Encoding: 153 -1 153
Width: 959
Flags: HW
HStem: 72 64<607.875 768.559>
VStem: 316 64<378.36 540>
LayerCount: 2
Fore
SplineSet
717 72 m 0
 505 72 316 257 316 504 c 0
 316 516 316 528 317 540 c 1
 228 465 l 1
 187 514 l 1
 367 665 l 1
 519 485 l 1
 470 444 l 1
 382 548 l 1
 380 533 380 519 380 504 c 0
 380 292 541 136 717 136 c 0
 734 136 751 137 768 140 c 1
 779 77 l 1
 758 73 738 72 717 72 c 0
EndSplineSet
EndChar

StartChar: uni2936
Encoding: 154 10550 154
Width: 959
Flags: HW
HStem: 136 64<240 400.647>
VStem: 644 64<427.852 588.559>
LayerCount: 2
Fore
SplineSet
708 537 m 0
 708 326 521 136 276 136 c 0
 264 136 252 136 240 137 c 1
 315 48 l 1
 266 7 l 1
 114 187 l 1
 295 339 l 1
 336 290 l 1
 232 202 l 1
 246 200 261 200 275 200 c 0
 486 200 644 360 644 537 c 0
 644 554 643 571 640 588 c 1
 703 599 l 1
 707 578 708 558 708 537 c 0
EndSplineSet
EndChar

StartChar: uni2935
Encoding: 155 10549 155
Width: 959
Flags: HW
HStem: 464 64<191.441 352.048>
VStem: 579 64<60 227.199>
LayerCount: 2
Fore
SplineSet
243 528 m 0
 454 528 643 344 643 96 c 0
 643 84 643 72 642 60 c 1
 732 135 l 1
 773 86 l 1
 592 -65 l 1
 441 115 l 1
 490 156 l 1
 577 53 l 1
 579 68 579 81 579 96 c 0
 579 309 420 464 243 464 c 0
 226 464 209 463 192 460 c 1
 181 523 l 1
 202 527 222 528 243 528 c 0
EndSplineSet
EndChar

StartChar: uni293B
Encoding: 156 10555 156
Width: 930
Flags: HW
HStem: 196 63<293.112 529.634>
LayerCount: 2
Fore
SplineSet
750 355 m 1
 708 305 594 196 412 196 c 0
 287 196 167 251 96 354 c 1
 148 390 l 1
 208 305 308 259 412 259 c 0
 466 259 602 274 709 406 c 1
 574 394 l 1
 568 458 l 1
 803 479 l 1
 823 244 l 1
 760 238 l 1
 750 355 l 1
EndSplineSet
EndChar

StartChar: sym06A
Encoding: 157 -1 157
Width: 532
Flags: HW
VStem: 307 63<128.112 364.634>
LayerCount: 2
Fore
SplineSet
211 585 m 1
 261 543 370 429 370 247 c 0
 370 122 315 2 212 -69 c 1
 176 -17 l 1
 261 43 307 143 307 247 c 0
 307 301 292 437 160 544 c 1
 172 409 l 1
 108 403 l 1
 87 638 l 1
 322 658 l 1
 328 595 l 1
 211 585 l 1
EndSplineSet
EndChar

StartChar: uni293A
Encoding: 158 10554 158
Width: 930
Flags: HW
HStem: 341 63<400.366 636.888>
LayerCount: 2
Fore
SplineSet
180 245 m 1
 222 295 336 404 518 404 c 0
 643 404 763 349 834 246 c 1
 782 210 l 1
 722 295 622 341 518 341 c 0
 464 341 328 326 221 194 c 1
 356 206 l 1
 362 142 l 1
 127 121 l 1
 107 356 l 1
 170 362 l 1
 180 245 l 1
EndSplineSet
EndChar

StartChar: uni2939
Encoding: 159 10553 159
Width: 532
Flags: HW
VStem: 162 63<235.366 471.888>
LayerCount: 2
Fore
SplineSet
321 15 m 1
 271 57 162 171 162 353 c 0
 162 478 217 598 320 669 c 1
 356 617 l 1
 271 557 225 457 225 353 c 0
 225 299 240 163 372 56 c 1
 360 191 l 1
 424 197 l 1
 445 -38 l 1
 210 -58 l 1
 204 5 l 1
 321 15 l 1
EndSplineSet
EndChar

StartChar: uni2934
Encoding: 160 10548 160
Width: 959
Flags: HW
HStem: 72 64<191.441 352.048>
VStem: 579 64<372.801 540>
LayerCount: 2
Fore
SplineSet
243 136 m 0
 420 136 579 291 579 504 c 0
 579 519 579 532 577 547 c 1
 490 444 l 1
 441 485 l 1
 592 665 l 1
 773 514 l 1
 732 465 l 1
 642 540 l 1
 643 528 643 516 643 504 c 0
 643 256 454 72 243 72 c 0
 222 72 202 73 181 77 c 1
 192 140 l 1
 209 137 226 136 243 136 c 0
EndSplineSet
EndChar

StartChar: sym06D
Encoding: 161 -1 161
Width: 959
Flags: HW
HStem: 1 21G<640 705> 400 64<240 400.647>
VStem: 644 64<11.4407 172.148>
LayerCount: 2
Fore
SplineSet
644 63 m 0
 644 240 486 400 275 400 c 0
 261 400 246 400 232 398 c 1
 336 310 l 1
 295 261 l 1
 114 413 l 1
 266 593 l 1
 315 552 l 1
 240 463 l 1
 252 464 264 464 276 464 c 0
 521 464 708 274 708 63 c 0
 708 42 707 22 703 1 c 1
 640 12 l 1
 643 29 644 46 644 63 c 0
EndSplineSet
EndChar

StartChar: sym06E
Encoding: 162 -1 162
Width: 959
Flags: HW
HStem: 464 64<607.875 768.559>
VStem: 316 64<60 221.64>
LayerCount: 2
Fore
SplineSet
717 464 m 0
 541 464 380 308 380 96 c 0
 380 81 380 67 382 52 c 1
 470 156 l 1
 519 115 l 1
 367 -65 l 1
 187 86 l 1
 228 135 l 1
 317 60 l 1
 316 72 316 84 316 96 c 0
 316 343 505 528 717 528 c 0
 738 528 758 527 779 523 c 1
 768 460 l 1
 751 463 734 464 717 464 c 0
EndSplineSet
EndChar

StartChar: uni2937
Encoding: 163 10551 163
Width: 959
Flags: HW
HStem: 136 64<554.54 719>
VStem: 251 64<426.174 588.373>
LayerCount: 2
Fore
SplineSet
315 535 m 0
 315 357 476 200 684 200 c 0
 699 200 713 200 728 202 c 1
 623 290 l 1
 664 339 l 1
 845 187 l 1
 693 7 l 1
 644 48 l 1
 719 138 l 1
 707 137 695 136 683 136 c 0
 442 136 251 321 251 538 c 0
 251 558 253 579 256 599 c 1
 320 588 l 1
 317 570 315 552 315 535 c 0
EndSplineSet
EndChar

StartChar: sym06F
Encoding: 164 -1 164
Width: 1080
Flags: HW
HStem: 340 64<408.8 671.2>
LayerCount: 2
Fore
SplineSet
945 121 m 1
 711 142 l 1
 716 206 l 1
 851 194 l 1
 776 286 662 340 540 340 c 0
 418 340 304 286 229 194 c 1
 364 206 l 1
 369 142 l 1
 135 121 l 1
 114 356 l 1
 178 362 l 1
 188 245 l 1
 276 345 404 404 540 404 c 0
 676 404 804 345 892 245 c 1
 902 362 l 1
 966 356 l 1
 945 121 l 1
EndSplineSet
EndChar

StartChar: sym070
Encoding: 165 -1 165
Width: 532
Flags: HW
VStem: 162 64<168.8 431.2>
LayerCount: 2
Fore
SplineSet
445 705 m 1
 424 471 l 1
 360 476 l 1
 372 611 l 1
 280 536 226 422 226 300 c 0
 226 178 280 64 372 -11 c 1
 360 124 l 1
 424 129 l 1
 445 -105 l 1
 210 -126 l 1
 204 -62 l 1
 321 -52 l 1
 221 36 162 164 162 300 c 0
 162 436 221 564 321 652 c 1
 204 662 l 1
 210 726 l 1
 445 705 l 1
EndSplineSet
EndChar

StartChar: sym071
Encoding: 166 -1 166
Width: 1080
Flags: HW
HStem: 196 64<408.8 671.2>
LayerCount: 2
Fore
SplineSet
135 479 m 1
 369 458 l 1
 364 394 l 1
 229 406 l 1
 304 314 418 260 540 260 c 0
 662 260 776 314 851 406 c 1
 716 394 l 1
 711 458 l 1
 945 479 l 1
 966 244 l 1
 902 238 l 1
 892 355 l 1
 804 255 676 196 540 196 c 0
 404 196 276 255 188 355 c 1
 178 238 l 1
 114 244 l 1
 135 479 l 1
EndSplineSet
EndChar

StartChar: sym072
Encoding: 167 -1 167
Width: 532
Flags: HW
VStem: 306 64<168.8 431.2>
LayerCount: 2
Fore
SplineSet
87 -105 m 1
 108 129 l 1
 172 124 l 1
 160 -11 l 1
 252 64 306 178 306 300 c 0
 306 422 252 536 160 611 c 1
 172 476 l 1
 108 471 l 1
 87 705 l 1
 322 726 l 1
 328 662 l 1
 211 652 l 1
 311 564 370 436 370 300 c 0
 370 164 311 36 211 -52 c 1
 328 -62 l 1
 322 -126 l 1
 87 -105 l 1
EndSplineSet
EndChar

StartChar: sym074
Encoding: 168 -1 168
Width: 1065
Flags: HW
HStem: 447 64<661.183 820>
VStem: 322 64<8.5625 172.309>
LayerCount: 2
Fore
SplineSet
322 45 m 0
 322 301 533 511 790 511 c 0
 800 511 810 511 820 510 c 1
 745 600 l 1
 794 641 l 1
 946 460 l 1
 765 309 l 1
 724 358 l 1
 827 445 l 1
 814 446 802 447 789 447 c 0
 567 447 386 266 386 43 c 0
 386 30 386 17 387 4 c 1
 475 109 l 1
 524 68 l 1
 372 -113 l 1
 192 39 l 1
 233 88 l 1
 323 12 l 1
 322 23 322 34 322 45 c 0
EndSplineSet
EndChar

StartChar: sym073
Encoding: 169 -1 169
Width: 1065
Flags: HW
HStem: 89 64<661.183 820> 693 20G<348.316 388.796>
VStem: 322 64<427.691 591.438>
LayerCount: 2
Fore
SplineSet
790 89 m 0
 533 89 322 299 322 555 c 0
 322 566 322 577 323 588 c 1
 233 512 l 1
 192 561 l 1
 372 713 l 1
 524 532 l 1
 475 491 l 1
 387 596 l 1
 386 583 386 570 386 557 c 0
 386 334 567 153 789 153 c 0
 802 153 814 154 827 155 c 1
 724 242 l 1
 765 291 l 1
 946 140 l 1
 794 -41 l 1
 745 0 l 1
 820 90 l 1
 810 89 800 89 790 89 c 0
EndSplineSet
EndChar

StartChar: sym076
Encoding: 170 -1 170
Width: 1065
Flags: HW
HStem: 89 64<245 404.14> 693 20G<676.204 716.684>
VStem: 679 65<428.453 590.961>
LayerCount: 2
Fore
SplineSet
744 557 m 0
 744 299 532 89 276 89 c 0
 266 89 255 89 245 90 c 1
 320 0 l 1
 271 -41 l 1
 120 140 l 1
 300 291 l 1
 341 242 l 1
 238 155 l 1
 251 154 263 153 276 153 c 0
 498 153 679 335 679 557 c 0
 679 570 679 582 678 595 c 1
 590 491 l 1
 541 532 l 1
 693 713 l 1
 873 561 l 1
 832 512 l 1
 743 588 l 1
 744 578 744 567 744 557 c 0
EndSplineSet
EndChar

StartChar: sym075
Encoding: 171 -1 171
Width: 1065
Flags: HW
HStem: 447 64<245 404.14>
VStem: 679 65<9.03906 171.547>
LayerCount: 2
Fore
SplineSet
276 511 m 0
 532 511 744 301 744 43 c 0
 744 33 744 22 743 12 c 1
 832 88 l 1
 873 39 l 1
 693 -113 l 1
 541 68 l 1
 590 109 l 1
 678 5 l 1
 679 18 679 30 679 43 c 0
 679 265 498 447 276 447 c 0
 263 447 251 446 238 445 c 1
 341 358 l 1
 300 309 l 1
 120 460 l 1
 271 641 l 1
 320 600 l 1
 245 510 l 1
 255 511 266 511 276 511 c 0
EndSplineSet
EndChar

StartChar: sym077
Encoding: 172 -1 172
Width: 930
Flags: HW
HStem: 268 64<154 840>
VStem: 90 64<124 268 332 476>
LayerCount: 2
Fore
SplineSet
154 124 m 1
 90 124 l 1
 90 476 l 1
 154 476 l 1
 154 332 l 1
 840 332 l 1
 840 268 l 1
 154 268 l 1
 154 124 l 1
EndSplineSet
EndChar

StartChar: sym078
Encoding: 173 -1 173
Width: 930
Flags: HW
HStem: 268 64<90 776>
VStem: 776 64<124 268 332 476>
LayerCount: 2
Fore
SplineSet
776 476 m 1
 840 476 l 1
 840 124 l 1
 776 124 l 1
 776 268 l 1
 90 268 l 1
 90 332 l 1
 776 332 l 1
 776 476 l 1
EndSplineSet
EndChar

StartChar: sym079
Encoding: 174 -1 174
Width: 1260
Flags: HW
HStem: -176 64<498.859 759.626> 712 64<498.859 755.215>
VStem: 154 64<168.859 431.141> 1036 63<381.778 442.596>
LayerCount: 2
Fore
SplineSet
218 300 m 0
 218 73 403 -112 630 -112 c 0
 813 -112 968 7 1022 172 c 1
 887 123 l 1
 865 183 l 1
 1086 264 l 1
 1167 42 l 1
 1107 21 l 1
 1071 120 l 1
 995 -66 816 -176 630 -176 c 0
 367 -176 154 37 154 300 c 0
 154 563 367 776 630 776 c 0
 857 776 1058 615 1099 383 c 1
 1036 372 l 1
 1001 567 831 712 630 712 c 0
 403 712 218 527 218 300 c 0
EndSplineSet
EndChar

StartChar: uni21BA
Encoding: 175 8634 175
Width: 1260
Flags: HW
HStem: -176 64<498.859 761.141> 706 63<487.404 548.222>
VStem: 154 64<168.859 425.215> 1042 64<168.859 429.626>
LayerCount: 2
Fore
SplineSet
630 -112 m 0
 857 -112 1042 73 1042 300 c 0
 1042 483 923 638 758 692 c 1
 807 557 l 1
 747 535 l 1
 666 756 l 1
 888 837 l 1
 909 777 l 1
 810 741 l 1
 996 665 1106 486 1106 300 c 0
 1106 37 893 -176 630 -176 c 0
 367 -176 154 37 154 300 c 0
 154 527 315 728 547 769 c 1
 558 706 l 1
 363 671 218 501 218 300 c 0
 218 73 403 -112 630 -112 c 0
EndSplineSet
EndChar

StartChar: uni27F2
Encoding: 176 10226 176
Width: 1260
Flags: HW
HStem: -176 64<504.785 761.141> 712 64<500.374 761.141>
VStem: 161 63<157.404 218.222> 1042 64<168.859 431.141>
LayerCount: 2
Fore
SplineSet
1042 300 m 0
 1042 527 857 712 630 712 c 0
 447 712 292 593 238 428 c 1
 373 477 l 1
 395 417 l 1
 174 336 l 1
 93 558 l 1
 153 579 l 1
 189 480 l 1
 265 666 444 776 630 776 c 0
 893 776 1106 563 1106 300 c 0
 1106 37 893 -176 630 -176 c 0
 403 -176 202 -15 161 217 c 1
 224 228 l 1
 259 33 429 -112 630 -112 c 0
 857 -112 1042 73 1042 300 c 0
EndSplineSet
EndChar

StartChar: sym07C
Encoding: 177 -1 177
Width: 1260
Flags: HW
HStem: -169 63<711.778 772.596> 712 64<498.859 761.141>
VStem: 154 64<170.374 431.141> 1042 64<174.785 431.141>
LayerCount: 2
Fore
SplineSet
630 712 m 0
 403 712 218 527 218 300 c 0
 218 117 337 -38 502 -92 c 1
 453 43 l 1
 513 65 l 1
 594 -156 l 1
 372 -237 l 1
 351 -177 l 1
 450 -141 l 1
 264 -65 154 114 154 300 c 0
 154 563 367 776 630 776 c 0
 893 776 1106 563 1106 300 c 0
 1106 73 945 -128 713 -169 c 1
 702 -106 l 1
 897 -71 1042 99 1042 300 c 0
 1042 527 857 712 630 712 c 0
EndSplineSet
EndChar

StartChar: uni27F3
Encoding: 178 10227 178
Width: 1260
Flags: HW
HStem: -176 64<498.859 755.215> 712 64<498.859 759.626>
VStem: 154 64<168.859 431.141> 1036 63<157.404 218.222>
LayerCount: 2
Fore
SplineSet
630 776 m 0
 816 776 995 666 1071 480 c 1
 1107 579 l 1
 1167 558 l 1
 1086 336 l 1
 865 417 l 1
 887 477 l 1
 1022 428 l 1
 968 593 813 712 630 712 c 0
 403 712 218 527 218 300 c 0
 218 73 403 -112 630 -112 c 0
 831 -112 1001 33 1036 228 c 1
 1099 217 l 1
 1058 -15 857 -176 630 -176 c 0
 367 -176 154 37 154 300 c 0
 154 563 367 776 630 776 c 0
EndSplineSet
EndChar

StartChar: uni21BB
Encoding: 179 8635 179
Width: 1260
Flags: HW
HStem: -176 64<498.859 761.141> 706 63<711.778 772.596>
VStem: 154 64<168.859 429.626> 1042 64<168.859 425.215>
LayerCount: 2
Fore
SplineSet
154 300 m 0
 154 486 264 665 450 741 c 1
 351 777 l 1
 372 837 l 1
 594 756 l 1
 513 535 l 1
 453 557 l 1
 502 692 l 1
 337 638 218 483 218 300 c 0
 218 73 403 -112 630 -112 c 0
 857 -112 1042 73 1042 300 c 0
 1042 501 897 671 702 706 c 1
 713 769 l 1
 945 728 1106 527 1106 300 c 0
 1106 37 893 -176 630 -176 c 0
 367 -176 154 37 154 300 c 0
EndSplineSet
EndChar

StartChar: sym07A
Encoding: 180 -1 180
Width: 1260
Flags: HW
HStem: -176 64<500.374 761.141> 712 64<504.785 761.141>
VStem: 161 63<381.778 442.596> 1042 64<168.859 431.141>
LayerCount: 2
Fore
SplineSet
630 -176 m 0
 444 -176 265 -66 189 120 c 1
 153 21 l 1
 93 42 l 1
 174 264 l 1
 395 183 l 1
 373 123 l 1
 238 172 l 1
 292 7 447 -112 630 -112 c 0
 857 -112 1042 73 1042 300 c 0
 1042 527 857 712 630 712 c 0
 429 712 259 567 224 372 c 1
 161 383 l 1
 202 615 403 776 630 776 c 0
 893 776 1106 563 1106 300 c 0
 1106 37 893 -176 630 -176 c 0
EndSplineSet
EndChar

StartChar: sym07B
Encoding: 181 -1 181
Width: 1260
Flags: HW
HStem: -169 63<487.404 548.222> 712 64<498.859 761.141>
VStem: 154 64<174.785 431.141> 1042 64<170.374 431.141>
LayerCount: 2
Fore
SplineSet
1106 300 m 0
 1106 114 996 -65 810 -141 c 1
 909 -177 l 1
 888 -237 l 1
 666 -156 l 1
 747 65 l 1
 807 43 l 1
 758 -92 l 1
 923 -38 1042 117 1042 300 c 0
 1042 527 857 712 630 712 c 0
 403 712 218 527 218 300 c 0
 218 99 363 -71 558 -106 c 1
 547 -169 l 1
 315 -128 154 73 154 300 c 0
 154 563 367 776 630 776 c 0
 893 776 1106 563 1106 300 c 0
EndSplineSet
EndChar

StartChar: uni21DB
Encoding: 182 8667 182
Width: 1080
Flags: HW
HStem: 154 52<90 766> 274 52<90 887> 394 52<90 766>
CounterMasks: 1 e0
LayerCount: 2
Fore
SplineSet
1003 300 m 1
 765 61 l 1
 719 107 l 1
 766 154 l 1
 90 154 l 1
 90 206 l 1
 819 206 l 1
 887 274 l 1
 90 274 l 1
 90 326 l 1
 887 326 l 1
 819 394 l 1
 90 394 l 1
 90 446 l 1
 766 446 l 1
 719 493 l 1
 765 539 l 1
 1003 300 l 1
EndSplineSet
EndChar

StartChar: uni290A
Encoding: 183 10506 183
Width: 647
Flags: HW
HStem: 743 20G<303.916 344>
VStem: 178 51<-150 527> 298 51<-150 647> 418 51<-150 527>
CounterMasks: 1 70
LayerCount: 2
Fore
SplineSet
324 763 m 1
 562 525 l 1
 517 479 l 1
 469 527 l 1
 469 -150 l 1
 418 -150 l 1
 418 579 l 1
 349 648 l 1
 349 -150 l 1
 298 -150 l 1
 298 647 l 1
 229 578 l 1
 229 -150 l 1
 178 -150 l 1
 178 527 l 1
 130 479 l 1
 85 525 l 1
 324 763 l 1
EndSplineSet
EndChar

StartChar: uni21DA
Encoding: 184 8666 184
Width: 1080
Flags: HW
HStem: 154 52<314 990> 274 52<193 990> 394 52<314 990>
CounterMasks: 1 e0
LayerCount: 2
Fore
SplineSet
77 300 m 1
 315 539 l 1
 361 493 l 1
 314 446 l 1
 990 446 l 1
 990 394 l 1
 261 394 l 1
 193 326 l 1
 990 326 l 1
 990 274 l 1
 193 274 l 1
 261 206 l 1
 990 206 l 1
 990 154 l 1
 314 154 l 1
 361 107 l 1
 315 61 l 1
 77 300 l 1
EndSplineSet
EndChar

StartChar: uni290B
Encoding: 185 10507 185
Width: 647
Flags: HW
VStem: 178 51<73 750> 298 51<-47 750> 418 51<73 750>
CounterMasks: 1 e0
LayerCount: 2
Fore
SplineSet
324 -163 m 1
 85 75 l 1
 130 121 l 1
 178 73 l 1
 178 750 l 1
 229 750 l 1
 229 22 l 1
 298 -47 l 1
 298 750 l 1
 349 750 l 1
 349 -48 l 1
 418 21 l 1
 418 750 l 1
 469 750 l 1
 469 73 l 1
 517 121 l 1
 562 75 l 1
 324 -163 l 1
EndSplineSet
EndChar

StartChar: uni27F6
Encoding: 186 10230 186
Width: 1680
Flags: HW
HStem: 268 64<90 1481>
LayerCount: 2
Fore
SplineSet
1603 300 m 1
 1437 133 l 1
 1391 179 l 1
 1481 268 l 1
 90 268 l 1
 90 332 l 1
 1481 332 l 1
 1391 421 l 1
 1437 467 l 1
 1603 300 l 1
EndSplineSet
EndChar

StartChar: uni27F5
Encoding: 187 10229 187
Width: 1680
Flags: HW
HStem: 268 64<199 1590>
LayerCount: 2
Fore
SplineSet
77 300 m 1
 243 467 l 1
 289 421 l 1
 199 332 l 1
 1590 332 l 1
 1590 268 l 1
 199 268 l 1
 289 179 l 1
 243 133 l 1
 77 300 l 1
EndSplineSet
EndChar

StartChar: uni27F9
Encoding: 188 10233 188
Width: 1680
Flags: HW
HStem: 178 64<90 1391> 358 64<90 1391>
LayerCount: 2
Fore
SplineSet
1603 300 m 1
 1393 90 l 1
 1348 135 l 1
 1391 178 l 1
 90 178 l 1
 90 242 l 1
 1455 242 l 1
 1513 300 l 1
 1455 358 l 1
 90 358 l 1
 90 422 l 1
 1391 422 l 1
 1348 465 l 1
 1393 510 l 1
 1603 300 l 1
EndSplineSet
EndChar

StartChar: uni27F8
Encoding: 189 10232 189
Width: 1680
Flags: HW
HStem: 178 64<289 1590> 358 64<289 1590>
LayerCount: 2
Fore
SplineSet
77 300 m 1
 287 510 l 1
 332 465 l 1
 289 422 l 1
 1590 422 l 1
 1590 358 l 1
 225 358 l 1
 167 300 l 1
 225 242 l 1
 1590 242 l 1
 1590 178 l 1
 289 178 l 1
 332 135 l 1
 287 90 l 1
 77 300 l 1
EndSplineSet
EndChar

StartChar: uni27F7
Encoding: 190 10231 190
Width: 1680
Flags: HW
HStem: 268 64<199 1481>
LayerCount: 2
Fore
SplineSet
77 300 m 1
 243 467 l 1
 289 421 l 1
 199 332 l 1
 1481 332 l 1
 1391 421 l 1
 1437 467 l 1
 1603 300 l 1
 1437 133 l 1
 1391 179 l 1
 1481 268 l 1
 199 268 l 1
 289 179 l 1
 243 133 l 1
 77 300 l 1
EndSplineSet
EndChar

StartChar: uni27FA
Encoding: 191 10234 191
Width: 1680
Flags: HW
HStem: 178 64<289 1391> 358 64<289 1391>
LayerCount: 2
Fore
SplineSet
1455 358 m 1
 225 358 l 1
 167 300 l 1
 225 242 l 1
 1455 242 l 1
 1513 300 l 1
 1455 358 l 1
77 300 m 1
 287 510 l 1
 332 465 l 1
 289 422 l 1
 1391 422 l 1
 1348 465 l 1
 1393 510 l 1
 1603 300 l 1
 1393 90 l 1
 1348 135 l 1
 1391 178 l 1
 289 178 l 1
 332 135 l 1
 287 90 l 1
 77 300 l 1
EndSplineSet
EndChar

StartChar: uni27FC
Encoding: 192 10236 192
Width: 1680
Flags: HW
HStem: 268 64<154 1481>
VStem: 90 64<124 268 332 476>
LayerCount: 2
Fore
SplineSet
1603 300 m 1
 1437 133 l 1
 1391 179 l 1
 1481 268 l 1
 154 268 l 1
 154 124 l 1
 90 124 l 1
 90 476 l 1
 154 476 l 1
 154 332 l 1
 1481 332 l 1
 1391 421 l 1
 1437 467 l 1
 1603 300 l 1
EndSplineSet
EndChar

StartChar: uni27FB
Encoding: 193 10235 193
Width: 1680
Flags: HW
HStem: 268 64<199 1526>
VStem: 1526 64<124 268 332 476>
LayerCount: 2
Fore
SplineSet
77 300 m 1
 243 467 l 1
 289 421 l 1
 199 332 l 1
 1526 332 l 1
 1526 476 l 1
 1590 476 l 1
 1590 124 l 1
 1526 124 l 1
 1526 268 l 1
 199 268 l 1
 289 179 l 1
 243 133 l 1
 77 300 l 1
EndSplineSet
EndChar

StartChar: uni27FE
Encoding: 194 10238 194
Width: 1680
Flags: HW
HStem: 178 64<154 1391> 358 64<154 1391>
VStem: 90 64<81 178 242 358 422 519>
LayerCount: 2
Fore
SplineSet
154 358 m 1
 154 242 l 1
 1455 242 l 1
 1513 300 l 1
 1455 358 l 1
 154 358 l 1
1603 300 m 1
 1393 90 l 1
 1348 135 l 1
 1391 178 l 1
 154 178 l 1
 154 81 l 1
 90 81 l 1
 90 519 l 1
 154 519 l 1
 154 422 l 1
 1391 422 l 1
 1348 465 l 1
 1393 510 l 1
 1603 300 l 1
EndSplineSet
EndChar

StartChar: uni27FD
Encoding: 195 10237 195
Width: 1680
Flags: HW
HStem: 178 64<289 1526> 358 64<289 1526>
VStem: 1526 64<81 178 242 358 422 519>
LayerCount: 2
Fore
SplineSet
1526 242 m 1
 1526 358 l 1
 225 358 l 1
 167 300 l 1
 225 242 l 1
 1526 242 l 1
77 300 m 1
 287 510 l 1
 332 465 l 1
 289 422 l 1
 1526 422 l 1
 1526 519 l 1
 1590 519 l 1
 1590 81 l 1
 1526 81 l 1
 1526 178 l 1
 289 178 l 1
 332 135 l 1
 287 90 l 1
 77 300 l 1
EndSplineSet
EndChar

StartChar: uni27FF
Encoding: 196 10239 196
Width: 1680
Flags: HW
HStem: 196 64<411.393 500.607 812.204 901.189 1212.81 1296.6> 268 64<1353.71 1481> 340 64<203.953 300.189 611.811 700.888 1012.39 1101.61>
CounterMasks: 1 e0
LayerCount: 2
Fore
SplineSet
1257 260 m 0
 1295 260 1322 332 1391 332 c 2
 1481 332 l 1
 1391 421 l 1
 1437 467 l 1
 1603 300 l 1
 1437 133 l 1
 1391 179 l 1
 1481 268 l 1
 1391 268 l 2
 1355 268 1326 196 1257 196 c 0
 1204 196 1162 237 1131 282 c 0
 1112 309 1090 340 1057 340 c 0
 1024 340 1002 309 983 282 c 0
 952 237 910 196 857 196 c 0
 803 196 762 237 730 282 c 0
 711 309 690 340 656 340 c 0
 623 340 602 309 582 282 c 0
 551 237 510 196 456 196 c 0
 402 196 361 237 330 282 c 0
 310 309 289 340 256 340 c 0
 205 340 178 288 148 246 c 1
 96 282 l 1
 137 341 185 404 256 404 c 0
 309 404 351 363 382 318 c 0
 401 291 423 260 456 260 c 0
 489 260 511 291 530 318 c 0
 561 363 603 404 656 404 c 0
 710 404 752 363 783 318 c 0
 802 291 823 260 857 260 c 0
 890 260 911 291 931 318 c 0
 962 363 1003 404 1057 404 c 0
 1111 404 1152 363 1183 318 c 0
 1203 291 1224 260 1257 260 c 0
EndSplineSet
EndChar

StartChar: uni2B33
Encoding: 197 11059 197
Width: 1680
Flags: HW
HStem: 196 64<383.401 467.189 778.811 867.796 1179.39 1268.61> 268 64<199 326.292> 340 64<578.393 667.607 979.204 1068.19 1379.81 1476.05>
CounterMasks: 1 e0
LayerCount: 2
Fore
SplineSet
423 196 m 0
 354 196 325 268 289 268 c 2
 199 268 l 1
 289 179 l 1
 243 133 l 1
 77 300 l 1
 243 467 l 1
 289 421 l 1
 199 332 l 1
 289 332 l 2
 358 332 385 260 423 260 c 0
 456 260 477 291 497 318 c 0
 528 363 569 404 623 404 c 0
 677 404 718 363 749 318 c 0
 769 291 790 260 823 260 c 0
 857 260 878 291 897 318 c 0
 929 363 970 404 1024 404 c 0
 1077 404 1119 363 1150 318 c 0
 1169 291 1191 260 1224 260 c 0
 1257 260 1279 291 1298 318 c 0
 1329 363 1371 404 1424 404 c 0
 1495 404 1543 341 1584 282 c 1
 1532 246 l 1
 1502 288 1475 340 1424 340 c 0
 1391 340 1370 309 1350 282 c 0
 1319 237 1278 196 1224 196 c 0
 1170 196 1129 237 1098 282 c 0
 1078 309 1057 340 1024 340 c 0
 990 340 969 309 950 282 c 0
 918 237 877 196 823 196 c 0
 770 196 728 237 697 282 c 0
 678 309 656 340 623 340 c 0
 590 340 568 309 549 282 c 0
 518 237 476 196 423 196 c 0
EndSplineSet
EndChar

StartChar: uni27DD
Encoding: 198 10205 198
Width: 1680
Flags: HW
HStem: 268 64<154 1590>
VStem: 90 64<124 268 332 476>
LayerCount: 2
Fore
SplineSet
154 124 m 1
 90 124 l 1
 90 476 l 1
 154 476 l 1
 154 332 l 1
 1590 332 l 1
 1590 268 l 1
 154 268 l 1
 154 124 l 1
EndSplineSet
EndChar

StartChar: uni27DE
Encoding: 199 10206 199
Width: 1680
Flags: HW
HStem: 268 64<90 1526>
VStem: 1526 64<124 268 332 476>
LayerCount: 2
Fore
SplineSet
1526 476 m 1
 1590 476 l 1
 1590 124 l 1
 1526 124 l 1
 1526 268 l 1
 90 268 l 1
 90 332 l 1
 1526 332 l 1
 1526 476 l 1
EndSplineSet
EndChar

StartChar: uni21B0
Encoding: 200 8624 200
Width: 628
Flags: HW
HStem: 412 64<199 474>
VStem: 474 64<-20 412>
LayerCount: 2
Fore
SplineSet
77 444 m 1
 243 611 l 1
 289 565 l 1
 199 476 l 1
 538 476 l 1
 538 -20 l 1
 474 -20 l 1
 474 412 l 1
 199 412 l 1
 289 323 l 1
 243 277 l 1
 77 444 l 1
EndSplineSet
EndChar

StartChar: uni21B1
Encoding: 201 8625 201
Width: 628
Flags: HW
HStem: 412 64<154 429>
VStem: 90 64<-20 412>
LayerCount: 2
Fore
SplineSet
551 444 m 1
 385 277 l 1
 339 323 l 1
 429 412 l 1
 154 412 l 1
 154 -20 l 1
 90 -20 l 1
 90 476 l 1
 429 476 l 1
 339 565 l 1
 385 611 l 1
 551 444 l 1
EndSplineSet
EndChar

StartChar: uni21B2
Encoding: 202 8626 202
Width: 628
Flags: HW
HStem: -11 21G<223.12 263> 124 64<199 474>
VStem: 474 64<188 620>
LayerCount: 2
Fore
SplineSet
77 156 m 1
 243 323 l 1
 289 277 l 1
 199 188 l 1
 474 188 l 1
 474 620 l 1
 538 620 l 1
 538 124 l 1
 199 124 l 1
 289 35 l 1
 243 -11 l 1
 77 156 l 1
EndSplineSet
EndChar

StartChar: uni21B3
Encoding: 203 8627 203
Width: 628
Flags: HW
HStem: -11 21G<365 404.88> 124 64<154 429>
VStem: 90 64<188 620>
LayerCount: 2
Fore
SplineSet
551 156 m 1
 385 -11 l 1
 339 35 l 1
 429 124 l 1
 90 124 l 1
 90 620 l 1
 154 620 l 1
 154 188 l 1
 429 188 l 1
 339 277 l 1
 385 323 l 1
 551 156 l 1
EndSplineSet
EndChar

StartChar: uni21AC
Encoding: 204 8620 204
Width: 930
Flags: HW
HStem: 268 64<219.061 433 497 731> 611 64<218.651 368.705>
VStem: 90 64<396.651 546.705> 433 64<-75 268 332 546.388>
LayerCount: 2
Fore
SplineSet
433 332 m 1
 433 472 l 2
 433 549 371 611 294 611 c 0
 216 611 154 549 154 472 c 0
 154 394 216 332 294 332 c 2
 433 332 l 1
853 300 m 1
 687 133 l 1
 641 179 l 1
 731 268 l 1
 497 268 l 1
 497 -75 l 1
 433 -75 l 1
 433 268 l 1
 294 268 l 2
 181 268 90 359 90 472 c 0
 90 584 181 675 294 675 c 0
 406 675 497 584 497 472 c 2
 497 332 l 1
 731 332 l 1
 641 421 l 1
 687 467 l 1
 853 300 l 1
EndSplineSet
EndChar

StartChar: uni21AB
Encoding: 205 8619 205
Width: 930
Flags: HW
HStem: 268 64<199 433 497 711.388> 611 64<561.651 711.705>
VStem: 433 64<-75 268 332 546.388> 776 64<396.651 546.705>
LayerCount: 2
Fore
SplineSet
497 332 m 1
 637 332 l 2
 714 332 776 394 776 472 c 0
 776 549 714 611 637 611 c 0
 559 611 497 549 497 472 c 2
 497 332 l 1
77 300 m 1
 243 467 l 1
 289 421 l 1
 199 332 l 1
 433 332 l 1
 433 472 l 2
 433 584 524 675 637 675 c 0
 749 675 840 584 840 472 c 0
 840 359 749 268 637 268 c 2
 497 268 l 1
 497 -75 l 1
 433 -75 l 1
 433 268 l 1
 199 268 l 1
 289 179 l 1
 243 133 l 1
 77 300 l 1
EndSplineSet
EndChar

StartChar: uni22A2
Encoding: 224 8866 206
Width: 840
Flags: HW
HStem: 0 21G<90 154> 322 64<154 750> 687 20G<90 154>
VStem: 90 64<0 322 386 707>
LayerCount: 2
Fore
SplineSet
154 0 m 1
 90 0 l 1
 90 707 l 1
 154 707 l 1
 154 386 l 1
 750 386 l 1
 750 322 l 1
 154 322 l 1
 154 0 l 1
EndSplineSet
EndChar

StartChar: uni22A5
Encoding: 225 8869 207
Width: 840
Flags: HW
HStem: 0 64<90 388 452 750> 687 20G<388 452>
VStem: 388 64<64 707>
LayerCount: 2
Fore
SplineSet
750 64 m 1
 750 0 l 1
 90 0 l 1
 90 64 l 1
 388 64 l 1
 388 707 l 1
 452 707 l 1
 452 64 l 1
 750 64 l 1
EndSplineSet
EndChar

StartChar: uni22A3
Encoding: 226 8867 208
Width: 840
Flags: HW
HStem: 0 21G<686 750> 322 64<90 686> 687 20G<686 750>
VStem: 686 64<0 322 386 707>
LayerCount: 2
Fore
SplineSet
686 707 m 1
 750 707 l 1
 750 0 l 1
 686 0 l 1
 686 322 l 1
 90 322 l 1
 90 386 l 1
 686 386 l 1
 686 707 l 1
EndSplineSet
EndChar

StartChar: uni22A4
Encoding: 227 8868 209
Width: 840
Flags: HW
HStem: 0 21G<388 452> 643 64<90 388 452 750>
VStem: 388 64<0 643>
LayerCount: 2
Fore
SplineSet
90 643 m 1
 90 707 l 1
 750 707 l 1
 750 643 l 1
 452 643 l 1
 452 0 l 1
 388 0 l 1
 388 643 l 1
 90 643 l 1
EndSplineSet
EndChar

StartChar: uni22A6
Encoding: 228 8870 210
Width: 642
Flags: HW
HStem: 0 21G<90 154> 322 64<154 552> 687 20G<90 154>
VStem: 90 64<0 322 386 707>
LayerCount: 2
Fore
SplineSet
154 0 m 1
 90 0 l 1
 90 707 l 1
 154 707 l 1
 154 386 l 1
 552 386 l 1
 552 322 l 1
 154 322 l 1
 154 0 l 1
EndSplineSet
EndChar

StartChar: uni2AE0
Encoding: 229 10976 211
Width: 840
Flags: HW
HStem: 0 64<90 388 452 750>
VStem: 388 64<64 495>
LayerCount: 2
Fore
SplineSet
750 64 m 1
 750 0 l 1
 90 0 l 1
 90 64 l 1
 388 64 l 1
 388 495 l 1
 452 495 l 1
 452 64 l 1
 750 64 l 1
EndSplineSet
EndChar

StartChar: uni2ADE
Encoding: 230 10974 212
Width: 642
Flags: HW
HStem: 0 21G<488 552> 322 64<90 488> 687 20G<488 552>
VStem: 488 64<0 322 386 707>
LayerCount: 2
Fore
SplineSet
488 707 m 1
 552 707 l 1
 552 0 l 1
 488 0 l 1
 488 322 l 1
 90 322 l 1
 90 386 l 1
 488 386 l 1
 488 707 l 1
EndSplineSet
EndChar

StartChar: uni2ADF
Encoding: 231 10975 213
Width: 840
Flags: HW
HStem: 0 21G<388 452> 431 64<90 388 452 750>
VStem: 388 64<0 431>
LayerCount: 2
Fore
SplineSet
90 431 m 1
 90 495 l 1
 750 495 l 1
 750 431 l 1
 452 431 l 1
 452 0 l 1
 388 0 l 1
 388 431 l 1
 90 431 l 1
EndSplineSet
EndChar

StartChar: uni22A8
Encoding: 232 8872 214
Width: 840
Flags: HW
HStem: 0 21G<90 154> 232 64<154 750> 412 64<154 750> 687 20G<90 154>
VStem: 90 64<0 232 296 412 476 707>
LayerCount: 2
Fore
SplineSet
154 0 m 1
 90 0 l 1
 90 707 l 1
 154 707 l 1
 154 476 l 1
 750 476 l 1
 750 412 l 1
 154 412 l 1
 154 296 l 1
 750 296 l 1
 750 232 l 1
 154 232 l 1
 154 0 l 1
EndSplineSet
EndChar

StartChar: uni2AEB
Encoding: 233 10987 215
Width: 840
Flags: HW
HStem: 0 64<90 298 362 478 542 750> 687 20G<298 362 478 542>
VStem: 298 64<64 707> 478 64<64 707>
LayerCount: 2
Fore
SplineSet
750 64 m 1
 750 0 l 1
 90 0 l 1
 90 64 l 1
 298 64 l 1
 298 707 l 1
 362 707 l 1
 362 64 l 1
 478 64 l 1
 478 707 l 1
 542 707 l 1
 542 64 l 1
 750 64 l 1
EndSplineSet
EndChar

StartChar: uni2AE4
Encoding: 234 10980 216
Width: 840
Flags: HW
HStem: 0 21G<686 750> 232 64<90 686> 412 64<90 686> 687 20G<686 750>
VStem: 686 64<0 232 296 412 476 707>
LayerCount: 2
Fore
SplineSet
686 707 m 1
 750 707 l 1
 750 0 l 1
 686 0 l 1
 686 232 l 1
 90 232 l 1
 90 296 l 1
 686 296 l 1
 686 412 l 1
 90 412 l 1
 90 476 l 1
 686 476 l 1
 686 707 l 1
EndSplineSet
EndChar

StartChar: uni2AEA
Encoding: 235 10986 217
Width: 840
Flags: HW
HStem: 0 21G<298 362 478 542> 643 64<90 298 362 478 542 750>
VStem: 298 64<0 643> 478 64<0 643>
LayerCount: 2
Fore
SplineSet
90 643 m 1
 90 707 l 1
 750 707 l 1
 750 643 l 1
 542 643 l 1
 542 0 l 1
 478 0 l 1
 478 643 l 1
 362 643 l 1
 362 0 l 1
 298 0 l 1
 298 643 l 1
 90 643 l 1
EndSplineSet
EndChar

StartChar: uni22A7
Encoding: 236 8871 218
Width: 642
Flags: HW
HStem: 0 21G<90 154> 232 64<154 552> 412 64<154 552> 687 20G<90 154>
VStem: 90 64<0 232 296 412 476 707>
LayerCount: 2
Fore
SplineSet
154 0 m 1
 90 0 l 1
 90 707 l 1
 154 707 l 1
 154 476 l 1
 552 476 l 1
 552 412 l 1
 154 412 l 1
 154 296 l 1
 552 296 l 1
 552 232 l 1
 154 232 l 1
 154 0 l 1
EndSplineSet
EndChar

StartChar: sym07E
Encoding: 237 -1 219
Width: 840
Flags: HW
HStem: 0 64<90 298 362 478 542 750>
VStem: 298 64<64 495> 478 64<64 495>
LayerCount: 2
Fore
SplineSet
750 64 m 1
 750 0 l 1
 90 0 l 1
 90 64 l 1
 298 64 l 1
 298 495 l 1
 362 495 l 1
 362 64 l 1
 478 64 l 1
 478 495 l 1
 542 495 l 1
 542 64 l 1
 750 64 l 1
EndSplineSet
EndChar

StartChar: sym07D
Encoding: 238 -1 220
Width: 642
Flags: HW
HStem: 0 21G<488 552> 232 64<90 488> 412 64<90 488> 687 20G<488 552>
VStem: 488 64<0 232 296 412 476 707>
LayerCount: 2
Fore
SplineSet
488 707 m 1
 552 707 l 1
 552 0 l 1
 488 0 l 1
 488 232 l 1
 90 232 l 1
 90 296 l 1
 488 296 l 1
 488 412 l 1
 90 412 l 1
 90 476 l 1
 488 476 l 1
 488 707 l 1
EndSplineSet
EndChar

StartChar: sym07F
Encoding: 239 -1 221
Width: 840
Flags: HW
HStem: 0 21G<298 362 478 542> 431 64<90 298 362 478 542 750>
VStem: 298 64<0 431> 478 64<0 431>
LayerCount: 2
Fore
SplineSet
90 431 m 1
 90 495 l 1
 750 495 l 1
 750 431 l 1
 542 431 l 1
 542 0 l 1
 478 0 l 1
 478 431 l 1
 362 431 l 1
 362 0 l 1
 298 0 l 1
 298 431 l 1
 90 431 l 1
EndSplineSet
EndChar

StartChar: uni22A9
Encoding: 240 8873 222
Width: 1038
Flags: HW
HStem: 0 21G<90 154 288 352> 322 64<352 948> 687 20G<90 154 288 352>
VStem: 90 64<0 707> 288 64<0 322 386 707>
LayerCount: 2
Fore
SplineSet
154 0 m 1
 90 0 l 1
 90 707 l 1
 154 707 l 1
 154 0 l 1
352 0 m 1
 288 0 l 1
 288 707 l 1
 352 707 l 1
 352 386 l 1
 948 386 l 1
 948 322 l 1
 352 322 l 1
 352 0 l 1
EndSplineSet
EndChar

StartChar: uni234A
Encoding: 241 9034 223
Width: 840
Flags: HW
HStem: -106 64<90 750> 92 64<90 388 452 750>
VStem: 388 64<156 813>
LayerCount: 2
Fore
SplineSet
750 -42 m 1
 750 -106 l 1
 90 -106 l 1
 90 -42 l 1
 750 -42 l 1
750 156 m 1
 750 92 l 1
 90 92 l 1
 90 156 l 1
 388 156 l 1
 388 813 l 1
 452 813 l 1
 452 156 l 1
 750 156 l 1
EndSplineSet
EndChar

StartChar: uni2AE3
Encoding: 242 10979 224
Width: 1038
Flags: HW
HStem: 0 21G<686 750 884 948> 322 64<90 686> 687 20G<686 750 884 948>
VStem: 686 64<0 322 386 707> 884 64<0 707>
LayerCount: 2
Fore
SplineSet
884 707 m 1
 948 707 l 1
 948 0 l 1
 884 0 l 1
 884 707 l 1
686 707 m 1
 750 707 l 1
 750 0 l 1
 686 0 l 1
 686 322 l 1
 90 322 l 1
 90 386 l 1
 686 386 l 1
 686 707 l 1
EndSplineSet
EndChar

StartChar: uni2351
Encoding: 243 9041 225
Width: 840
Flags: HW
HStem: 551 64<90 388 452 750> 749 64<90 750>
VStem: 388 64<-106 551>
LayerCount: 2
Fore
SplineSet
90 749 m 1
 90 813 l 1
 750 813 l 1
 750 749 l 1
 90 749 l 1
90 551 m 1
 90 615 l 1
 750 615 l 1
 750 551 l 1
 452 551 l 1
 452 -106 l 1
 388 -106 l 1
 388 551 l 1
 90 551 l 1
EndSplineSet
EndChar

StartChar: uni22A9.alt
Encoding: 244 -1 226
Width: 840
Flags: HW
HStem: 0 21G<90 154 288 352> 322 64<352 750> 687 20G<90 154 288 352>
VStem: 90 64<0 707> 288 64<0 322 386 707>
LayerCount: 2
Fore
SplineSet
154 0 m 1
 90 0 l 1
 90 707 l 1
 154 707 l 1
 154 0 l 1
352 0 m 1
 288 0 l 1
 288 707 l 1
 352 707 l 1
 352 386 l 1
 750 386 l 1
 750 322 l 1
 352 322 l 1
 352 0 l 1
EndSplineSet
EndChar

StartChar: uni2AE8
Encoding: 245 10984 227
Width: 840
Flags: HW
HStem: 0 64<90 750> 198 64<90 388 452 750> 687 20G<388 452>
VStem: 388 64<262 707>
LayerCount: 2
Fore
SplineSet
750 64 m 1
 750 0 l 1
 90 0 l 1
 90 64 l 1
 750 64 l 1
750 262 m 1
 750 198 l 1
 90 198 l 1
 90 262 l 1
 388 262 l 1
 388 707 l 1
 452 707 l 1
 452 262 l 1
 750 262 l 1
EndSplineSet
EndChar

StartChar: uni2AE3.alt
Encoding: 246 -1 228
Width: 840
Flags: HW
HStem: 0 21G<488 552 686 750> 322 64<90 488> 687 20G<488 552 686 750>
VStem: 488 64<0 322 386 707> 686 64<0 707>
LayerCount: 2
Fore
SplineSet
686 707 m 1
 750 707 l 1
 750 0 l 1
 686 0 l 1
 686 707 l 1
488 707 m 1
 552 707 l 1
 552 0 l 1
 488 0 l 1
 488 322 l 1
 90 322 l 1
 90 386 l 1
 488 386 l 1
 488 707 l 1
EndSplineSet
EndChar

StartChar: uni2AE7
Encoding: 247 10983 229
Width: 840
Flags: HW
HStem: 0 21G<388 452> 445 64<90 388 452 750> 643 64<90 750>
VStem: 388 64<0 445>
LayerCount: 2
Fore
SplineSet
90 643 m 1
 90 707 l 1
 750 707 l 1
 750 643 l 1
 90 643 l 1
90 445 m 1
 90 509 l 1
 750 509 l 1
 750 445 l 1
 452 445 l 1
 452 0 l 1
 388 0 l 1
 388 445 l 1
 90 445 l 1
EndSplineSet
EndChar

StartChar: uni22AB
Encoding: 248 8875 230
Width: 1038
Flags: HW
HStem: 0 21G<90 154 288 352> 232 64<352 948> 412 64<352 948> 687 20G<90 154 288 352>
VStem: 90 64<0 707> 288 64<0 232 296 412 476 707>
LayerCount: 2
Fore
SplineSet
154 0 m 1
 90 0 l 1
 90 707 l 1
 154 707 l 1
 154 0 l 1
352 0 m 1
 288 0 l 1
 288 707 l 1
 352 707 l 1
 352 476 l 1
 948 476 l 1
 948 412 l 1
 352 412 l 1
 352 296 l 1
 948 296 l 1
 948 232 l 1
 352 232 l 1
 352 0 l 1
EndSplineSet
EndChar

StartChar: sym080
Encoding: 249 -1 231
Width: 840
Flags: HW
HStem: -106 64<90 750> 92 64<90 298 362 478 542 750>
VStem: 298 64<156 813> 478 64<156 813>
LayerCount: 2
Fore
SplineSet
750 -42 m 1
 750 -106 l 1
 90 -106 l 1
 90 -42 l 1
 750 -42 l 1
750 156 m 1
 750 92 l 1
 90 92 l 1
 90 156 l 1
 298 156 l 1
 298 813 l 1
 362 813 l 1
 362 156 l 1
 478 156 l 1
 478 813 l 1
 542 813 l 1
 542 156 l 1
 750 156 l 1
EndSplineSet
EndChar

StartChar: uni2AE5
Encoding: 250 10981 232
Width: 1038
Flags: HW
HStem: 0 21G<686 750 884 948> 232 64<90 686> 412 64<90 686> 687 20G<686 750 884 948>
VStem: 686 64<0 232 296 412 476 707> 884 64<0 707>
LayerCount: 2
Fore
SplineSet
884 707 m 1
 948 707 l 1
 948 0 l 1
 884 0 l 1
 884 707 l 1
686 707 m 1
 750 707 l 1
 750 0 l 1
 686 0 l 1
 686 232 l 1
 90 232 l 1
 90 296 l 1
 686 296 l 1
 686 412 l 1
 90 412 l 1
 90 476 l 1
 686 476 l 1
 686 707 l 1
EndSplineSet
EndChar

StartChar: sym081
Encoding: 251 -1 233
Width: 840
Flags: HW
HStem: 551 64<90 298 362 478 542 750> 749 64<90 750>
VStem: 298 64<-106 551> 478 64<-106 551>
LayerCount: 2
Fore
SplineSet
90 749 m 1
 90 813 l 1
 750 813 l 1
 750 749 l 1
 90 749 l 1
90 551 m 1
 90 615 l 1
 750 615 l 1
 750 551 l 1
 542 551 l 1
 542 -106 l 1
 478 -106 l 1
 478 551 l 1
 362 551 l 1
 362 -106 l 1
 298 -106 l 1
 298 551 l 1
 90 551 l 1
EndSplineSet
EndChar

StartChar: uni22AA
Encoding: 252 8874 234
Width: 1038
Flags: HW
HStem: 0 21G<90 154 288 352 486 550> 322 64<550 948> 687 20G<90 154 288 352 486 550>
VStem: 90 64<0 707> 288 64<0 707> 486 64<0 322 386 707>
CounterMasks: 1 1c
LayerCount: 2
Fore
SplineSet
154 0 m 1
 90 0 l 1
 90 707 l 1
 154 707 l 1
 154 0 l 1
352 0 m 1
 288 0 l 1
 288 707 l 1
 352 707 l 1
 352 0 l 1
550 0 m 1
 486 0 l 1
 486 707 l 1
 550 707 l 1
 550 386 l 1
 948 386 l 1
 948 322 l 1
 550 322 l 1
 550 0 l 1
EndSplineSet
EndChar

StartChar: sym082
Encoding: 253 -1 235
Width: 1038
Flags: HW
HStem: 0 21G<488 552 686 750 884 948> 322 64<90 488> 687 20G<488 552 686 750 884 948>
VStem: 488 64<0 322 386 707> 686 64<0 707> 884 64<0 707>
CounterMasks: 1 1c
LayerCount: 2
Fore
SplineSet
884 707 m 1
 948 707 l 1
 948 0 l 1
 884 0 l 1
 884 707 l 1
686 707 m 1
 750 707 l 1
 750 0 l 1
 686 0 l 1
 686 707 l 1
488 707 m 1
 552 707 l 1
 552 0 l 1
 488 0 l 1
 488 322 l 1
 90 322 l 1
 90 386 l 1
 488 386 l 1
 488 707 l 1
EndSplineSet
EndChar

StartChar: uni2AE2
Encoding: 254 10978 236
Width: 840
Flags: HW
HStem: 0 21G<90 154> 142 64<154 750> 322 64<154 750> 502 64<154 750> 687 20G<90 154>
VStem: 90 64<0 142 206 322 386 502 566 707>
LayerCount: 2
Fore
SplineSet
154 0 m 1
 90 0 l 1
 90 707 l 1
 154 707 l 1
 154 566 l 1
 750 566 l 1
 750 502 l 1
 154 502 l 1
 154 386 l 1
 750 386 l 1
 750 322 l 1
 154 322 l 1
 154 206 l 1
 750 206 l 1
 750 142 l 1
 154 142 l 1
 154 0 l 1
EndSplineSet
EndChar

StartChar: sym083
Encoding: 255 -1 237
Width: 840
Flags: HW
HStem: 0 21G<686 750> 142 64<90 686> 322 64<90 686> 502 64<90 686> 687 20G<686 750>
VStem: 686 64<0 142 206 322 386 502 566 707>
LayerCount: 2
Fore
SplineSet
686 707 m 1
 750 707 l 1
 750 0 l 1
 686 0 l 1
 686 142 l 1
 90 142 l 1
 90 206 l 1
 686 206 l 1
 686 322 l 1
 90 322 l 1
 90 386 l 1
 686 386 l 1
 686 502 l 1
 90 502 l 1
 90 566 l 1
 686 566 l 1
 686 707 l 1
EndSplineSet
EndChar
